<svg width="295" height="165" viewBox="0 0 295 165" fill="none" xmlns="http://www.w3.org/2000/svg">
<rect y="35" width="295" height="123" rx="8" fill="#04B6F5" fill-opacity="0.08"/>
<path d="M110.809 86.9722C123.495 78.5785 131.857 64.2074 131.857 47.865C131.857 21.9843 110.873 0.999985 84.9922 0.999985C59.1115 0.999985 38.1272 21.9843 38.1272 47.865C38.1272 73.7457 59.1115 94.7301 84.9922 94.7301C89.8886 94.7301 94.626 93.967 99.0454 92.568L120.602 94.7301C112.908 91.1691 111.159 87.8307 110.809 86.9722Z" fill="#E2E2E2" stroke="black" stroke-miterlimit="10" stroke-linecap="round" stroke-linejoin="round"/>
<path d="M80.1277 60.9643C80.1277 60.9643 61.1146 63.953 58.9526 66.5602C56.8223 69.1673 55.3916 79.9774 53.9608 85.8912C53.9608 85.8912 130.681 133.36 120.634 79.4687C120.634 79.4687 118.535 65.1294 108.87 61.3777C108.87 61.3777 94.1172 60.551 91.7327 60.6146C89.3481 60.6782 80.1277 60.9643 80.1277 60.9643Z" fill="#CDBFDE" stroke="black" stroke-miterlimit="10" stroke-linecap="round" stroke-linejoin="round"/>
<path d="M81.2723 55.4321C81.2723 55.4321 82.6712 59.8516 81.2723 62.0136C81.2723 62.0136 87.0589 71.8381 91.1604 62.0136C91.1604 62.0136 89.1255 59.947 90.0157 54.7963L81.2723 55.4321Z" fill="white" stroke="black" stroke-miterlimit="10"/>
<path d="M80.1277 60.9642L72.9739 62.3314L83.3389 77.243L86.6137 66.4329L80.1277 60.9642Z" fill="#CDBFDE" stroke="black" stroke-miterlimit="10" stroke-linecap="round" stroke-linejoin="round"/>
<path d="M91.7327 60.6146L86.6137 66.433L90.8106 77.2431L99.3633 60.9644L91.7327 60.6146Z" fill="#CDBFDE" stroke="black" stroke-miterlimit="10" stroke-linecap="round" stroke-linejoin="round"/>
<path d="M86.4548 66.9736V96.924" stroke="black" stroke-miterlimit="10"/>
<path d="M86.6773 68.2453C86.9056 68.2453 87.0907 68.0602 87.0907 67.8319C87.0907 67.6037 86.9056 67.4186 86.6773 67.4186C86.4491 67.4186 86.264 67.6037 86.264 67.8319C86.264 68.0602 86.4491 68.2453 86.6773 68.2453Z" fill="white" stroke="black" stroke-width="0.5" stroke-miterlimit="10"/>
<path d="M87.2178 74.2545C87.4461 74.2545 87.6312 74.0694 87.6312 73.8412C87.6312 73.6129 87.4461 73.4278 87.2178 73.4278C86.9896 73.4278 86.8045 73.6129 86.8045 73.8412C86.8045 74.0694 86.9896 74.2545 87.2178 74.2545Z" fill="white" stroke="black" stroke-width="0.5" stroke-miterlimit="10"/>
<path d="M87.2178 80.2953C87.4461 80.2953 87.6312 80.1103 87.6312 79.882C87.6312 79.6537 87.4461 79.4687 87.2178 79.4687C86.9896 79.4687 86.8045 79.6537 86.8045 79.882C86.8045 80.1103 86.9896 80.2953 87.2178 80.2953Z" fill="white" stroke="black" stroke-width="0.5" stroke-miterlimit="10"/>
<path d="M87.2178 86.3046C87.4461 86.3046 87.6312 86.1195 87.6312 85.8912C87.6312 85.663 87.4461 85.4779 87.2178 85.4779C86.9896 85.4779 86.8045 85.663 86.8045 85.8912C86.8045 86.1195 86.9896 86.3046 87.2178 86.3046Z" fill="white" stroke="black" stroke-width="0.5" stroke-miterlimit="10"/>
<path d="M87.2178 92.3137C87.4461 92.3137 87.6312 92.1286 87.6312 91.9003C87.6312 91.6721 87.4461 91.487 87.2178 91.487C86.9896 91.487 86.8045 91.6721 86.8045 91.9003C86.8045 92.1286 86.9896 92.3137 87.2178 92.3137Z" fill="white" stroke="black" stroke-width="0.5" stroke-miterlimit="10"/>
<path d="M68.7134 29.138C68.3637 29.5831 68.014 58.3253 84.9286 58.6433C101.843 58.993 99.872 23.4468 99.1726 23.574C98.4731 23.7012 68.7134 29.138 68.7134 29.138Z" fill="white" stroke="black" stroke-miterlimit="10"/>
<path d="M89.0619 39.6302C89.0619 39.6302 90.9378 37.659 94.0218 39.6302" stroke="black" stroke-miterlimit="10" stroke-linecap="round" stroke-linejoin="round"/>
<path d="M77.7749 39.6303C77.7749 39.6303 79.6507 37.6591 82.7348 39.6303" stroke="black" stroke-miterlimit="10" stroke-linecap="round" stroke-linejoin="round"/>
<path d="M80.2548 46.0209C80.887 46.0209 81.3995 45.2095 81.3995 44.2086C81.3995 43.2077 80.887 42.3963 80.2548 42.3963C79.6227 42.3963 79.1102 43.2077 79.1102 44.2086C79.1102 45.2095 79.6227 46.0209 80.2548 46.0209Z" fill="black" stroke="black" stroke-miterlimit="10" stroke-linecap="round" stroke-linejoin="round"/>
<path d="M91.5419 46.0209C92.174 46.0209 92.6865 45.2095 92.6865 44.2086C92.6865 43.2077 92.174 42.3963 91.5419 42.3963C90.9097 42.3963 90.3973 43.2077 90.3973 44.2086C90.3973 45.2095 90.9097 46.0209 91.5419 46.0209Z" fill="black" stroke="black" stroke-miterlimit="10" stroke-linecap="round" stroke-linejoin="round"/>
<path d="M84.5153 36.5465C84.3563 36.3875 84.261 36.1649 84.1974 35.9424C84.3563 35.6562 84.7697 35.5926 84.9922 35.8152C85.183 36.0378 85.2466 36.4193 85.5009 36.5147C85.6599 36.5783 85.8507 36.4829 86.0096 36.4193C86.1686 36.3557 86.3912 36.3875 86.4866 36.5465C86.5184 36.8644 86.6137 37.1506 86.7727 37.4367C86.8999 37.2777 87.0271 37.1188 87.186 37.0552C87.345 36.9916 87.5994 37.087 87.6312 37.2777C87.6312 37.3731 87.6312 37.4685 87.6312 37.5639C87.6947 37.8183 88.0445 37.8183 88.267 37.6911C88.4896 37.5639 88.8076 37.5003 88.9347 37.7229C88.9983 37.8183 88.9665 37.9772 88.9983 38.1044C89.0301 38.327 89.2209 38.5177 89.4117 38.5495C89.6024 38.5813 89.825 38.4223 89.8886 38.2316C89.9204 38.168 89.9204 38.0726 89.984 38.0408C90.1111 37.9136 90.3337 38.0408 90.3973 38.1998C90.4609 38.3588 90.5563 38.5813 90.7152 38.6449C90.906 38.7085 91.0968 38.5177 91.1285 38.327C91.1603 38.1044 91.065 37.8818 90.906 37.7547C90.8106 37.6593 90.6834 37.5639 90.6834 37.4049C90.6834 37.1824 91.0014 37.0234 90.9378 36.8008C90.8424 36.6101 90.4927 36.7054 90.4291 36.5147C90.6198 36.2921 90.906 36.1967 91.1921 36.2285C90.9696 36.0696 91.065 35.5926 91.3193 35.5608C91.5101 35.529 91.7009 35.7198 91.8916 35.688C92.1142 35.6562 92.2732 35.3383 92.146 35.1157C92.0824 34.9885 91.9552 34.925 91.8598 34.8296C91.7644 34.7342 91.7326 34.5434 91.7962 34.448C91.9234 34.3209 92.146 34.5116 92.3049 34.4162C92.4957 34.3209 92.4003 34.0029 92.4321 33.7804C92.4639 33.526 92.7183 33.367 92.9726 33.367C93.1952 33.367 93.4178 33.4942 93.6085 33.5896C93.7993 33.685 94.0218 33.8757 93.9901 34.0983C93.9583 34.2573 93.8311 34.3527 93.7675 34.4798C93.6721 34.607 93.6721 34.8296 93.7993 34.8932C93.8629 34.925 93.9583 34.8932 94.0219 34.925C94.4034 35.0203 93.9901 35.8788 94.3398 36.0696C94.7213 36.2285 94.9121 35.1793 95.2618 35.4019C95.1664 35.5926 95.4526 35.7834 95.6116 35.688C95.8023 35.5926 95.8977 35.3701 96.0885 35.2747C96.3111 35.1793 96.5654 35.2747 96.6608 35.4973C96.7562 35.7198 96.6608 36.0378 96.47 36.1649C96.3428 36.2285 96.1839 36.2603 96.1521 36.4193C96.1521 36.5147 96.2157 36.6101 96.2475 36.7054C96.3746 36.9598 96.2793 37.2778 96.2475 37.5639C96.2157 37.8501 96.3111 38.2316 96.5654 38.2634C96.7562 38.2952 96.9469 38.1044 97.1377 38.0726C97.4874 38.009 97.7736 38.3906 97.9644 38.7085C97.9962 38.7721 98.0598 38.8675 98.0915 38.9311C98.1869 39.1218 98.3141 39.3444 98.3141 39.5669C98.1233 39.6623 97.9008 39.5669 97.6782 39.5669C97.4557 39.5669 97.2013 39.6941 97.2013 39.9485C97.2331 40.171 97.4557 40.2664 97.6464 40.2982C97.8372 40.2982 96.629 40.7116 96.788 40.8705C96.9151 40.9977 96.9469 41.1885 97.0423 41.3792C97.1059 41.5382 97.2967 41.6972 97.4557 41.6336C97.551 41.57 97.5828 41.4746 97.6782 41.3792C97.7736 41.3156 97.869 41.2838 97.9962 41.2838C98.2187 41.2838 98.4731 41.5064 98.3777 41.6972C98.3459 41.7608 98.2505 41.8244 98.2187 41.8879C98.028 42.2059 98.6956 42.5238 98.5367 42.8736C98.3459 42.8418 98.1551 42.8418 97.9962 42.969C97.8372 43.0961 99.3315 43.0007 99.4905 43.0007C99.2997 43.2551 98.8228 42.969 98.6638 43.2551C98.5685 43.4459 98.7274 43.7002 98.9182 43.732C99.109 43.7956 99.3315 43.7638 99.4905 43.8592C99.7131 43.9864 99.8402 44.2407 100.031 44.4315C100.222 44.5905 100.603 44.5905 100.635 44.3043C100.635 44.1771 100.54 44.0182 100.572 43.891C100.635 43.6048 100.985 43.732 101.207 43.891C101.398 44.05 101.78 44.1771 101.843 43.891C101.907 43.6366 101.525 43.3187 101.716 43.1597C101.907 42.969 102.225 43.5413 102.416 43.3505C102.479 42.969 102.288 42.5556 101.97 42.4285C102.066 42.3331 102.161 42.2695 102.257 42.1741C101.97 42.0469 101.811 41.6972 101.843 41.3792C102.098 41.5382 102.32 41.6654 102.575 41.8244C102.734 41.729 102.638 41.4746 102.511 41.3156C102.384 41.1567 102.257 40.9659 102.384 40.8069C102.511 40.648 102.702 40.7751 102.861 40.9023C102.988 41.0295 103.242 41.1249 103.338 40.9341C103.21 40.7433 103.179 40.489 103.274 40.2664C103.306 40.171 103.401 40.0757 103.369 39.9485C103.338 39.7259 103.02 39.7577 102.861 39.5987C102.638 39.3762 102.861 38.9629 103.147 38.9311C103.433 38.8993 103.687 39.1218 103.91 39.3126C104.005 39.0582 103.878 38.7085 103.687 38.5495C103.846 38.4541 104.037 38.3906 104.196 38.2952C104.291 38.009 103.656 37.9454 103.719 37.6275C103.751 37.4367 104.037 37.4685 104.196 37.5639C104.355 37.6911 104.578 37.8183 104.705 37.6593C104.8 37.5639 104.768 37.3731 104.768 37.246C104.768 37.1188 104.864 36.8962 104.991 36.928C105.182 36.9598 105.341 36.6736 105.245 36.4829C105.182 36.2603 104.991 36.1331 104.832 36.0378C104.705 35.9424 104.546 35.847 104.387 35.847C104.291 35.847 104.228 35.847 104.132 35.8152C104.005 35.7834 103.942 35.6244 103.942 35.4655C103.942 35.3065 103.974 35.1793 104.037 35.0203C104.196 35.1475 104.355 35.2429 104.514 35.2429C104.705 35.2111 104.832 34.9568 104.705 34.7978C104.641 34.7024 104.514 34.7024 104.45 34.6388C104.323 34.5752 104.26 34.3844 104.291 34.2573C104.323 34.1301 104.45 34.0029 104.578 33.9711C104.482 33.9075 104.355 33.8757 104.291 33.7804C104.228 33.685 104.196 33.526 104.26 33.4306C104.291 33.367 104.355 33.367 104.387 33.3034C104.419 33.2081 104.323 33.1127 104.228 33.0809C104.132 33.0491 104.005 33.0491 103.974 32.9537C103.878 32.7947 104.037 32.604 104.132 32.5086C104.26 32.3814 104.387 32.1906 104.291 32.0635C104.26 32.0317 104.196 31.9999 104.164 31.9363C104.132 31.8409 104.26 31.7455 104.355 31.7455C104.45 31.7773 104.514 31.8727 104.609 31.9363C104.705 31.9999 104.832 32.0317 104.896 31.9363C104.959 31.8727 104.927 31.7773 104.927 31.6819C104.864 31.3958 104.832 31.1096 104.768 30.8235C104.768 30.7917 104.768 30.7281 104.737 30.6963C104.609 30.4419 104.196 30.7917 104.005 30.6009C103.942 30.5373 103.942 30.4101 103.878 30.3148C103.719 29.9968 103.242 30.3466 102.956 30.1558C102.765 30.0286 102.734 29.7107 102.829 29.5199C102.924 29.2973 103.147 29.202 103.369 29.1384C103.242 29.1066 103.274 28.9158 103.338 28.7886C103.401 28.6932 103.528 28.5343 103.465 28.4071C103.433 28.3435 103.401 28.3117 103.369 28.2799C103.274 28.1527 103.274 27.9938 103.338 27.8666C103.433 27.7394 103.592 27.7076 103.687 27.7712C103.751 27.644 103.751 27.4533 103.687 27.2943C103.497 27.3579 103.242 27.1671 103.242 26.9445C103.115 27.1353 102.765 27.0399 102.734 26.8174C102.702 26.6902 102.734 26.563 102.67 26.4676C102.575 26.3404 102.416 26.4358 102.257 26.4676C102.129 26.4994 101.907 26.3722 102.002 26.2451C101.97 26.3722 101.78 26.3405 101.716 26.2133C101.653 26.0861 101.653 25.9589 101.589 25.8317C101.557 25.7681 101.525 25.7364 101.525 25.6728C101.494 25.482 101.748 25.3866 101.907 25.323C102.066 25.2594 102.352 24.9097 102.257 24.7189C102.225 24.7825 102.161 24.8143 102.129 24.8779C102.161 24.7507 102.129 24.6236 102.066 24.5282C101.97 24.4328 101.843 24.4328 101.78 24.5282C101.716 24.6236 101.716 24.7825 101.621 24.7825C101.494 24.7825 101.494 24.5282 101.366 24.4646C101.176 24.6871 100.889 24.7825 100.635 24.7189C100.572 24.4964 100.794 24.1466 100.603 24.0195C100.476 23.9241 100.285 24.0513 100.158 23.9241C100.031 23.7969 100.19 23.5743 100.317 23.4789C100.254 23.4154 100.19 23.32 100.19 23.2246C100.285 23.1928 100.381 23.161 100.444 23.0656C100.508 22.9702 100.508 22.8431 100.413 22.7795C100.254 22.7159 100.063 22.9702 99.9674 22.8113C99.9356 22.7795 99.9356 22.7159 99.9356 22.6523C99.9356 22.4297 99.7131 22.3344 99.5541 22.239C99.6495 22.2708 99.7766 22.1436 99.8084 22.0482C99.8402 21.921 99.8402 21.7938 99.9038 21.6667C99.9674 21.5077 100.158 21.4759 100.254 21.3487C100.349 21.2215 100.349 20.9354 100.19 20.9672C100.095 21.1262 99.9038 21.1897 99.7449 21.1262C99.6495 21.0944 99.5541 20.999 99.4269 21.0308C99.2679 21.0944 99.2997 21.4759 99.109 21.4759C98.95 21.4759 98.9182 21.2533 98.791 21.1897C98.6956 21.2851 98.6638 21.4441 98.6003 21.5713C98.5367 21.6985 98.4095 21.8256 98.2823 21.762C98.0915 21.6985 98.1233 21.4123 98.2187 21.1897C97.9644 21.2215 97.7418 20.8718 97.8372 20.6174C97.9644 20.6492 98.0915 20.6175 98.1869 20.5221C98.0915 20.5221 98.028 20.3631 98.0597 20.2677C98.0915 20.1405 98.1869 20.0769 98.2187 19.9498C98.2505 19.8226 98.2187 19.6636 98.1233 19.6636C98.028 19.6636 97.9644 19.7272 97.9008 19.8226C97.8372 19.8862 97.71 19.9498 97.6782 19.8544C97.7736 19.6954 97.8372 19.5046 97.869 19.3139C97.7418 19.3139 97.6782 19.4729 97.6146 19.5682C97.5192 19.6636 97.3285 19.6636 97.3603 19.5046C97.4557 19.5046 97.4874 19.3457 97.4239 19.2503C97.3603 19.1549 97.2649 19.1231 97.2013 19.0913C97.1377 19.0277 97.2013 18.9005 97.2649 18.837C97.3285 18.7734 97.4557 18.7416 97.4557 18.6462C97.4557 18.5508 97.3921 18.4872 97.4239 18.3918C97.4557 18.2329 97.71 18.1693 97.6464 18.0421C97.6146 18.0103 97.4557 18.2011 97.4874 18.1693C97.6464 18.1693 97.7736 17.9467 97.71 17.7877C97.6464 17.6288 97.4239 17.5652 97.3285 17.6924C97.2967 17.4698 97.1695 17.279 97.0105 17.1836C96.8834 17.438 96.6926 17.597 96.4382 17.6924C96.5972 17.5016 96.47 17.1836 96.3428 16.9929C96.1839 16.7703 96.0249 16.5796 95.8023 16.5478C95.5798 16.516 95.2936 16.7703 95.389 17.0247C95.1665 16.8975 94.9121 16.8657 94.6895 16.8975C94.5942 16.6431 94.4034 16.4206 94.1808 16.2934C94.3716 16.2616 94.5624 16.198 94.6895 16.039C94.8167 15.8801 94.8167 15.5939 94.6577 15.4985C94.4352 15.3714 94.1808 15.6575 93.9583 15.5939C93.9265 15.3714 93.8947 15.1806 93.8629 14.958C93.6085 15.0216 93.3542 15.0534 93.0998 14.9898C93.0044 14.7673 92.8455 14.5765 92.6547 14.4811C92.8455 14.4493 93.068 14.5129 93.2588 14.4811C93.4496 14.4811 93.6721 14.3539 93.7357 14.1314C93.7993 13.877 93.4496 13.6227 93.2588 13.7816C93.1316 13.4955 93.7039 13.2411 93.5767 12.955C93.4813 12.7642 93.227 12.8596 93.068 12.9868C92.909 13.114 92.7183 13.3047 92.5593 13.1775C92.4321 13.0822 92.4321 12.8596 92.3685 12.7006C92.305 12.5417 91.987 12.5417 92.0506 12.7006C92.0824 12.8914 92.146 13.0504 92.1778 13.2411C92.0188 13.1457 91.8598 13.0504 91.6691 13.0822C91.5101 13.1457 91.4147 13.4637 91.5737 13.5273C91.6055 13.5591 91.6691 13.5591 91.7009 13.5591C91.9234 13.6545 91.7644 14.0678 91.5419 14.0678C91.3193 14.0678 91.1286 13.877 91.0014 13.6863C91.065 13.9724 90.8106 14.2903 90.5245 14.2586C90.2701 14.2268 90.0793 13.8452 90.2065 13.5909C89.9522 13.7181 89.666 13.7181 89.4117 13.6545C89.3799 13.5591 89.3799 13.6227 89.4752 13.5909C89.3799 13.4955 89.3481 13.3365 89.3481 13.2093C89.6342 13.2411 89.9204 13.2729 90.1747 13.1457C90.4291 13.0504 90.6516 12.7324 90.6198 12.4463C90.2701 12.2555 90.0157 11.7786 90.0157 11.3335C89.7296 11.4924 89.4752 11.7468 89.2845 12.0647C89.2845 11.8104 89.2527 11.556 89.2527 11.3017C89.0301 11.4924 88.7758 11.6514 88.4896 11.715C88.6168 11.4288 88.6168 11.0791 88.4896 10.8248C88.1717 10.793 87.9491 11.3653 87.663 11.2699C87.4722 11.2063 87.4404 10.9201 87.504 10.6976C87.5676 10.475 87.663 10.2525 87.5994 10.0617C87.345 10.0299 87.1225 10.5068 86.9317 10.3478C86.7727 10.2207 86.8999 9.93451 87.0589 9.77554C87.2178 9.61656 87.345 9.29862 87.1542 9.20324C86.8045 9.55298 86.264 9.64836 85.8507 9.4258C86.0414 9.29862 85.8507 8.91708 85.5963 8.94888C85.3738 8.98067 85.2148 9.20324 85.0558 9.394C84.8968 9.58477 84.6425 9.74374 84.4517 9.61656C84.2609 9.48939 84.2609 9.20324 84.1338 8.98068C84.0384 8.75811 83.6569 8.69452 83.6569 8.94888C83.6569 9.20324 83.6251 9.4258 83.6251 9.68015C83.3707 9.61656 83.0846 9.52118 82.8302 9.45759C82.6394 9.74374 82.8938 10.1253 83.0846 10.4114C83.2435 10.6976 83.2117 11.2699 82.8938 11.2381C82.6712 11.2063 82.6076 10.8883 82.6076 10.634C82.4805 10.793 82.3215 10.9201 82.1307 10.9519C81.94 10.9837 81.7174 10.7612 81.781 10.5704C81.622 10.7612 81.3041 10.793 81.1133 10.6022C81.2723 10.3796 81.4312 10.0935 81.3677 9.83913C81.3041 9.58477 80.9543 9.36221 80.8271 9.58477C80.7 9.77554 80.8271 10.0299 80.7 10.2207C80.541 10.4432 80.2231 10.2842 80.0323 10.1253C80.1913 10.5386 79.7779 11.0791 79.3646 10.9519C79.2374 10.9201 79.1102 10.8248 78.9831 10.8248C78.6015 10.8566 78.5061 11.6514 78.1246 11.6196C77.8703 11.5878 77.7749 11.2063 77.5205 11.1745C77.4569 11.3971 77.3616 11.6196 77.2026 11.7468C77.0436 11.874 76.7575 11.8422 76.6621 11.6514C76.5985 11.4606 76.6939 11.1745 76.5667 11.0155C76.4713 10.8883 76.2487 10.9519 76.1534 11.0791C76.058 11.2381 76.058 11.4289 76.058 11.6196C75.8036 11.4924 75.5175 11.4288 75.2313 11.4924C75.0723 11.715 75.5493 11.8422 75.6764 12.0965C75.7718 12.2873 75.6129 12.5099 75.4221 12.5417C75.2313 12.5734 75.0723 12.4781 74.9134 12.3509C74.9452 12.5099 74.9134 12.7006 74.7862 12.8278C74.6908 12.955 74.4683 12.955 74.3729 12.8278C74.2457 12.637 74.4047 12.2873 74.2457 12.0965C74.0867 11.9376 73.8324 12.1601 73.737 12.3509C73.6416 12.5417 73.4508 12.796 73.2601 12.7324C73.0693 12.6688 73.0693 12.3827 73.1011 12.1601C72.8467 12.0647 72.5606 12.2873 72.5288 12.5735C72.8149 12.637 73.0375 12.955 73.0057 13.2729C72.7196 13.2093 72.4652 13.1457 72.1791 13.0822C72.3062 13.4319 72.5288 13.7181 72.8149 13.9088C72.6242 14.0996 72.3698 14.2268 72.1155 14.2586C72.1791 14.4493 72.2744 14.6401 72.2426 14.8309C72.1791 15.3078 71.6703 15.1806 71.416 15.3396C71.6385 15.4667 71.7657 15.9755 71.9247 16.039C71.7339 15.9437 71.575 16.2616 71.5432 16.4842C71.5114 16.7067 71.3206 17.0247 71.1616 16.8657C71.1616 16.6431 71.0662 16.4524 70.9073 16.3252C70.8119 16.5478 70.5257 16.6749 70.3032 16.5478C70.4304 16.3252 70.335 16.0073 70.1442 15.9119C69.9534 15.8165 69.6673 15.9437 69.6037 16.198C69.5719 16.3252 69.6037 16.4842 69.5083 16.5796C69.3811 16.7703 69.0632 16.6749 68.8724 16.8021C68.6817 16.9611 68.7452 17.279 68.9042 17.438C69.0632 17.597 69.2858 17.6606 69.5083 17.6924C69.3175 17.7242 69.1586 17.7877 68.9678 17.8195C68.9996 17.9149 69.0632 18.0421 69.095 18.1375C69.5401 18.1057 70.0806 18.1057 70.3668 18.4872C70.4304 18.5508 70.4621 18.6144 70.4621 18.7098C70.4621 18.9959 70.1442 19.0913 69.9216 19.0277C69.6991 18.9641 69.4129 18.8688 69.2222 18.9959C68.9996 19.1549 68.9996 19.5364 68.9996 19.8544C68.9996 20.1723 68.9042 20.5857 68.6181 20.5857C68.6499 20.2041 68.2683 19.8544 67.9504 19.9498C68.014 20.2995 67.9504 20.6492 67.7914 20.9354C67.6324 20.5221 67.0919 20.4585 66.8376 20.7764C66.5832 21.0944 66.7422 21.6985 67.1237 21.8256C66.7422 21.921 66.2971 22.1436 66.3289 22.5887C67.0283 22.5251 67.7278 22.9702 68.014 23.6697C67.6642 23.7333 68.0458 24.5918 67.696 24.7507C67.4735 24.8461 67.3145 24.4964 67.3145 24.242C67.2827 23.9877 67.1555 23.6379 66.933 23.7015C66.8058 23.7651 66.7422 23.9559 66.615 24.0513C66.4243 24.1784 66.1699 23.9559 65.9791 23.8287C65.7884 23.7015 65.4068 23.7651 65.4704 24.0195C65.7248 23.8923 65.9791 24.3056 65.8837 24.5918C65.7566 24.8779 65.4386 24.9733 65.1525 24.9415C65.3432 25.1323 65.534 25.323 65.5658 25.5774C65.5976 25.8317 65.4386 26.1815 65.1843 26.1179C64.8663 26.0543 64.8663 25.5138 64.612 25.323C64.3576 25.1005 63.9443 25.4184 63.9443 25.7682C63.9443 26.1179 64.2304 26.4358 64.5484 26.5312C64.453 26.9763 63.7853 26.7856 63.4992 27.1035C63.4038 27.1989 63.3402 27.3579 63.3084 27.5168C63.1494 28.0256 62.9904 28.5343 62.8315 29.0112C63.1812 29.1702 63.4356 29.5517 63.4356 29.9968C63.054 29.965 62.4499 30.0922 62.5453 30.5373C62.6089 30.9824 63.372 31.1414 63.2448 31.5865C62.9269 31.6501 62.5135 31.9045 62.6407 32.2224C62.6725 32.3496 62.7997 32.445 62.8951 32.5404C63.054 32.7629 63.054 33.1445 62.8315 33.3352C62.7679 33.3988 62.6725 33.4624 62.6407 33.5896C62.5453 33.9393 63.213 34.0029 63.2448 34.3845C63.2766 34.6388 62.9587 34.766 62.7361 34.7978C62.5135 34.8296 62.1956 34.9885 62.2592 35.2429C62.4182 35.4019 62.4817 35.6244 62.4817 35.847C62.132 35.9742 61.6551 36.3239 61.8459 36.6737C61.973 36.8962 62.3228 36.928 62.4182 37.1824C62.4499 37.3095 62.4182 37.4367 62.4182 37.5639C62.4182 37.9772 62.7679 38.3588 63.1494 38.2952C62.7997 38.4859 62.8633 39.2172 63.2448 39.3126C63.1812 39.3126 63.1812 39.1536 63.2448 39.1536C63.3084 39.1218 63.4038 39.1854 63.4356 39.249C63.2766 39.6941 63.6263 40.2664 64.0397 40.2346C63.6899 40.4254 63.372 40.648 63.0222 40.8387C63.0858 41.1567 63.2766 41.411 63.531 41.5382C63.3402 41.6018 63.1812 41.6972 62.9904 41.7608C62.9269 41.9833 63.1176 42.2059 63.2766 42.3331C63.4992 42.5238 63.7535 42.7146 64.0079 42.7782C64.294 42.8418 64.612 42.7782 64.7709 42.5238C64.8663 42.3331 64.9299 42.0787 65.1207 42.0469C65.3114 42.0151 65.4068 42.2695 65.5976 42.3649C65.852 42.492 66.2017 42.2377 66.3607 42.492C66.456 42.651 66.3289 42.9054 66.1699 42.9372C66.0109 43.0008 65.8202 42.9054 65.6612 42.8418C65.5658 43.0325 65.5976 43.2869 65.7566 43.4141C65.5658 43.5731 65.3432 43.732 65.1525 43.891C65.3432 44.1771 65.534 44.4951 65.7248 44.7812C65.534 44.7812 65.3432 44.9402 65.3114 45.131C65.7248 45.1946 66.1699 45.29 66.4243 45.6397C66.5196 45.7669 66.5832 45.9576 66.6786 46.053C66.9012 46.3074 67.3781 46.1802 67.4735 45.8305C67.5053 45.7033 67.5053 45.5761 67.6006 45.4807C67.855 45.1946 68.3001 45.8305 68.6181 45.6397C68.8088 45.5125 68.7452 45.1628 68.8724 44.9402C69.0314 44.6859 69.6037 43.8274 69.7945 44.05C69.5719 43.8592 69.9852 44.2725 69.7945 44.05C70.017 44.2407 70.3986 44.2407 70.4939 43.9546C70.5257 43.8274 70.4939 43.6366 70.5893 43.5095C70.8119 43.1597 71.416 43.891 71.6385 43.5413C71.575 43.3187 71.8611 44.6223 72.0519 44.4951C72.338 44.3043 72.8149 44.9084 73.0057 44.5905C73.1011 44.4315 73.0057 44.2407 73.0375 44.05C73.1647 43.5095 74.0549 44.1136 74.3729 43.6684C74.2139 43.3187 74.2139 42.8418 74.4047 42.492C74.5318 42.5874 74.6908 42.6828 74.818 42.7782C74.977 42.3967 75.1677 42.0151 75.3267 41.6336C75.3585 41.57 75.3903 41.5064 75.4539 41.4746C75.5175 41.4428 75.6129 41.5064 75.6764 41.57C75.9308 41.7608 76.2805 41.7608 76.5349 41.57C76.3441 41.9833 76.8846 42.3967 77.2662 42.2695C77.6477 42.1423 77.9339 41.7608 78.3154 41.5382C78.2518 41.729 78.3154 41.9833 78.4744 42.0469C78.6333 42.1105 78.8559 42.0469 78.9513 41.8879C79.0785 41.6336 79.0785 41.1885 79.301 41.2521C79.46 41.2838 79.5554 41.5064 79.6825 41.4428C79.7779 41.3792 79.7779 41.2521 79.8097 41.1249C79.9051 40.8387 80.2548 40.8705 80.5092 40.9341C80.7636 40.9977 81.1133 40.9341 81.1451 40.648C81.1451 40.3936 80.8589 40.2346 80.7953 39.9803C80.7318 39.7259 81.0815 39.5034 81.2723 39.6623C81.2723 39.5034 81.3041 39.3444 81.3041 39.1854C81.3994 39.1218 81.4948 39.09 81.5902 39.0264C81.6856 39.249 81.94 39.408 82.1625 39.3762C82.1943 38.9629 82.3851 38.3906 82.7666 38.5177C82.862 38.5495 82.9574 38.6449 83.0528 38.6449C83.2435 38.6767 83.4025 38.4541 83.4025 38.2316C83.4025 38.009 83.2753 37.85 83.1799 37.6593C83.4025 37.7547 83.6251 37.8182 83.8476 37.7547C84.0702 37.6911 84.2609 37.4049 84.1656 37.1824C84.1338 37.087 84.0384 36.9916 84.0384 36.8962C84.0384 36.7372 84.2292 36.6419 84.3563 36.7054C84.4835 36.769 84.5789 36.928 84.6425 37.0552C84.6743 36.9916 84.5789 36.6419 84.5153 36.5465Z" fill="#3A3A3A" stroke="black" stroke-miterlimit="10" stroke-linecap="round" stroke-linejoin="round"/>
<path d="M83.1799 50.1542C83.1799 50.1542 85.7553 51.1081 90.6834 50.1542C90.6834 50.1542 88.3624 53.4927 86.9317 53.4927C86.9317 53.4927 85.2148 53.4927 83.1799 50.1542Z" fill="#EEDBEB" stroke="black" stroke-miterlimit="10" stroke-linecap="round" stroke-linejoin="round"/>
<path d="M71.0345 43.5092C70.9073 43.2866 70.7801 43.0958 70.5893 42.9369C70.3668 42.7143 70.017 42.5553 69.7627 42.7143C69.5719 42.8733 69.5401 43.1594 69.5719 43.4138C69.6355 43.9543 69.7627 44.4948 70.017 44.9717C70.2396 45.4168 70.5257 45.8302 70.9709 46.0527C71.0027 46.0845 71.0662 46.0845 71.1298 46.0845C71.1934 46.0845 71.257 46.0209 71.257 45.9574" fill="white"/>
<path d="M71.0345 43.5092C70.9073 43.2866 70.7801 43.0958 70.5893 42.9369C70.3668 42.7143 70.017 42.5553 69.7627 42.7143C69.5719 42.8733 69.5401 43.1594 69.5719 43.4138C69.6355 43.9543 69.7627 44.4948 70.017 44.9717C70.2396 45.4168 70.5257 45.8302 70.9709 46.0527C71.0027 46.0845 71.0662 46.0845 71.1298 46.0845C71.1934 46.0845 71.257 46.0209 71.257 45.9574" stroke="black" stroke-miterlimit="10" stroke-linecap="round" stroke-linejoin="round"/>
<path d="M97.6146 43.5092C97.7418 43.2866 97.9008 43.0958 98.0915 42.9369C98.3459 42.7143 98.7274 42.5553 98.9818 42.7143C99.2043 42.8733 99.2044 43.1594 99.2044 43.4138C99.1408 43.9543 98.9818 44.4948 98.7274 44.9717C98.5049 45.4168 98.1869 45.8302 97.71 46.0527C97.6464 46.0845 97.6146 46.0845 97.551 46.0845C97.4874 46.0845 97.4239 46.0209 97.4239 45.9574" fill="white"/>
<path d="M97.6146 43.5092C97.7418 43.2866 97.9008 43.0958 98.0915 42.9369C98.3459 42.7143 98.7274 42.5553 98.9818 42.7143C99.2043 42.8733 99.2044 43.1594 99.2044 43.4138C99.1408 43.9543 98.9818 44.4948 98.7274 44.9717C98.5049 45.4168 98.1869 45.8302 97.71 46.0527C97.6464 46.0845 97.6146 46.0845 97.551 46.0845C97.4874 46.0845 97.4239 46.0209 97.4239 45.9574" stroke="black" stroke-miterlimit="10" stroke-linecap="round" stroke-linejoin="round"/>
<path d="M83.9748 52.221C71.5749 53.302 70.4939 44.4314 70.4939 44.4314C70.4939 44.4314 69.9852 44.7175 69.6037 44.336" stroke="#565656" stroke-width="2" stroke-miterlimit="10" stroke-linecap="round" stroke-linejoin="round"/>
<path d="M84.0251 53.0185C85.0769 52.9565 85.9086 52.551 85.8828 52.1127C85.8569 51.6745 84.9834 51.3695 83.9316 51.4315C82.8798 51.4935 82.0481 51.899 82.0739 52.3372C82.0997 52.7755 82.9733 53.0805 84.0251 53.0185Z" fill="black" stroke="black" stroke-miterlimit="10"/>
<path d="M206.547 102.7H148.491C146.774 102.7 145.375 104.099 145.375 105.816V164H209.631V105.816C209.631 104.099 208.264 102.7 206.547 102.7Z" fill="#D3D1E9" stroke="black" stroke-miterlimit="10" stroke-linecap="round" stroke-linejoin="round"/>
<path d="M206.388 108.392C206.388 108.392 207.342 110.554 206.865 111.73L206.388 108.392Z" fill="#D3D1E9"/>
<path d="M206.388 108.392C206.388 108.392 207.342 110.554 206.865 111.73" stroke="black" stroke-miterlimit="10" stroke-linecap="round" stroke-linejoin="round"/>
<path d="M198.821 113.447C198.821 113.447 202.732 131.538 202.192 134.749C201.651 137.961 198.694 153.54 197.645 155.13C196.596 156.719 192.812 155.924 192.272 155.13C191.731 154.335 194.942 140.377 194.942 137.961C194.942 135.544 196.437 123.748 192.208 116.754L198.821 113.447Z" fill="white" stroke="black" stroke-miterlimit="10"/>
<path d="M167.822 105.657C167.822 105.657 151.225 77.7101 166.232 64.0385C181.239 50.3669 195.26 85.4044 192.208 94.3704C189.124 103.305 185.913 106.897 181.462 109.314C176.979 111.698 168.299 105.467 167.822 105.657Z" fill="#262626" stroke="black" stroke-miterlimit="10" stroke-linecap="round" stroke-linejoin="round"/>
<path d="M170.556 100.698C170.556 100.698 154.659 101.969 152.274 111.126C149.89 120.283 150.875 125.815 156.948 132.969C163.021 140.123 160.636 158.373 160.636 158.373C160.636 158.373 190.11 159.994 189.315 158.373C188.52 156.751 188.52 141.299 190.936 135.671C193.321 130.044 193.353 117.962 193.353 117.962C193.353 117.962 201.142 113.574 199.775 109.823C198.44 106.071 182.447 100.92 182.447 100.92L170.556 100.698Z" fill="#5C58A6" stroke="black" stroke-miterlimit="10" stroke-linecap="round" stroke-linejoin="round"/>
<path d="M176.311 99.8389C176.311 99.8389 176.343 100.92 176.12 101.142" stroke="#181818" stroke-miterlimit="10" stroke-linecap="round" stroke-linejoin="round"/>
<path d="M173.513 93.0032C173.513 93.0032 172.718 98.6308 170.556 100.697C170.556 100.697 175.484 106.325 181.462 101.047C181.462 101.047 179.681 102.923 177.265 91.7632L173.513 93.0032Z" fill="white" stroke="black" stroke-miterlimit="10"/>
<path d="M161.59 82.2249C161.59 82.2249 161.908 95.038 171.605 98.7898C173.004 99.3303 174.594 99.1395 175.834 98.2811C179.776 95.515 188.329 88.0433 186.167 77.0742C184.069 66.4866 167.09 70.4291 160.827 75.1983C158.697 76.788 161.59 82.2249 161.59 82.2249Z" fill="white" stroke="black" stroke-miterlimit="10"/>
<path d="M152.878 95.9919C153.292 101.206 154.277 106.325 155.581 111.031C156.058 112.779 156.63 114.56 157.648 116.086C158.919 117.962 159.587 115.164 159.905 114.337C159.968 114.147 160.064 113.924 160.255 113.829C160.573 113.638 160.954 113.829 161.24 114.051C161.844 114.56 162.226 115.323 162.735 115.8C163.466 115.132 163.593 114.051 164.102 113.352C163.911 113.67 164.928 114.592 165.119 114.719C166.137 113.511 166.582 111.571 166.741 109.981C167.345 110.363 167.854 110.904 168.235 111.508C167.79 110.745 168.14 108.328 168.012 107.343C167.79 105.848 167.44 104.354 167.027 102.891C166.2 99.9344 165.087 97.0411 164.229 94.0525C162.607 88.4248 161.304 81.3665 163.116 75.6435C164.547 76.2158 166.2 77.4875 167.631 78.346C169.475 79.4588 171.383 80.4444 173.386 81.1757C176.629 82.3839 180.158 82.9562 183.592 82.4475C183.655 82.4475 183.751 82.4793 183.751 82.5747C184.927 88.9971 186.676 95.4832 186.294 102.033C185.913 108.328 184.609 111.19 185.277 117.517C186.04 115.927 188.552 118.025 189.315 116.436C189.919 116.976 190.332 117.676 190.555 118.439C190.968 117.421 191.413 116.372 191.827 115.355C192.431 116.658 193.003 117.962 193.607 119.297C193.321 118.693 194.815 115.704 195.038 114.973C195.515 113.383 195.928 111.794 196.341 110.172C197.104 106.961 197.709 103.686 198.122 100.411C198.98 93.7027 199.044 86.8987 198.376 80.1583C197.422 70.7471 194.307 59.1103 184.8 54.9135C174.785 50.494 164.61 57.1073 159.174 65.4692C153.451 74.1173 152.02 85.2772 152.878 95.9919Z" fill="#3A3A3A" stroke="black" stroke-miterlimit="10" stroke-linecap="round" stroke-linejoin="round"/>
<path d="M177.583 75.2301C177.583 75.2301 182.829 79.427 186.39 79.268" stroke="#181818" stroke-miterlimit="10" stroke-linecap="round" stroke-linejoin="round"/>
<path d="M164.96 81.9387C164.96 81.9387 166.518 80.9213 167.822 82.3521" stroke="#181818" stroke-miterlimit="10" stroke-linecap="round" stroke-linejoin="round"/>
<path d="M174.085 83.6875C174.085 83.6875 175.643 82.67 176.947 84.1008" stroke="#181818" stroke-miterlimit="10" stroke-linecap="round" stroke-linejoin="round"/>
<path d="M166.709 86.8668C167.095 86.8668 167.408 86.1978 167.408 85.3725C167.408 84.5472 167.095 83.8781 166.709 83.8781C166.323 83.8781 166.009 84.5472 166.009 85.3725C166.009 86.1978 166.323 86.8668 166.709 86.8668Z" fill="black" stroke="black" stroke-miterlimit="10"/>
<path d="M174.975 88.1704C175.362 88.1704 175.675 87.5014 175.675 86.6761C175.675 85.8508 175.362 85.1817 174.975 85.1817C174.589 85.1817 174.276 85.8508 174.276 86.6761C174.276 87.5014 174.589 88.1704 174.975 88.1704Z" fill="black" stroke="black" stroke-miterlimit="10"/>
<path d="M170.016 86.6762C170.016 86.6762 169.888 89.4423 169.507 90.7777C169.125 92.113 171.383 90.7777 171.383 90.7777" stroke="#181818" stroke-miterlimit="10" stroke-linecap="round" stroke-linejoin="round"/>
<path d="M170.938 95.0697C171.394 95.0697 171.764 94.6997 171.764 94.2431C171.764 93.7866 171.394 93.4164 170.938 93.4164C170.481 93.4164 170.111 93.7866 170.111 94.2431C170.111 94.6997 170.481 95.0697 170.938 95.0697Z" fill="#EEDBEB" stroke="black" stroke-miterlimit="10" stroke-linecap="round" stroke-linejoin="round"/>
<path d="M146.996 148.866C145.343 143.493 144.961 132.047 154.341 108.996C154.341 108.996 158.728 100.443 158.633 88.9973C158.57 81.2712 161.399 86.1994 161.781 89.2834C161.813 89.6649 162.766 88.107 162.83 88.4568C162.957 89.5378 162.099 92.3357 162.099 92.3357C162.099 92.3357 160.795 100.825 159.841 106.516C159.46 108.742 159.396 111.031 159.619 113.288C160.382 120.696 161.177 139.264 152.37 150.202C150.716 152.3 147.823 151.537 146.996 148.866Z" fill="white" stroke="black" stroke-miterlimit="10"/>
<path d="M150.43 146.99C150.43 146.99 149.826 148.675 149.222 149.152" stroke="#181818" stroke-miterlimit="10" stroke-linecap="round" stroke-linejoin="round"/>
<path d="M255.606 164H69.7994V157.864C69.7994 155.829 71.4527 154.176 73.4876 154.176H251.95C253.985 154.176 255.638 155.829 255.638 157.864V164H255.606Z" fill="#B7B7B7" stroke="black" stroke-miterlimit="10"/>
<path d="M250.805 156.91C250.805 156.91 252.713 158.563 251.886 160.121L250.805 156.91Z" fill="#B7B7B7"/>
<path d="M250.805 156.91C250.805 156.91 252.713 158.563 251.886 160.121" stroke="black" stroke-miterlimit="10"/>
<path d="M231.029 135.957H221.459V137.579H231.029V135.957Z" fill="white" stroke="black" stroke-miterlimit="10" stroke-linecap="round" stroke-linejoin="round"/>
<path d="M232.523 137.579H219.933V139.868H232.523V137.579Z" fill="white" stroke="black" stroke-miterlimit="10" stroke-linecap="round" stroke-linejoin="round"/>
<path d="M230.52 154.176H222.763L220.473 139.9H232.015L230.52 154.176Z" fill="#DDDBEE" stroke="black" stroke-miterlimit="10" stroke-linecap="round" stroke-linejoin="round"/>
<path d="M231.029 151.473L221.713 151.537L220.982 145.273H231.697L231.029 151.473Z" fill="white" stroke="black" stroke-miterlimit="10" stroke-linecap="round" stroke-linejoin="round"/>
<path d="M230.012 147.308C230.012 147.308 229.885 149.374 229.726 150.106L230.012 147.308Z" fill="#DDDBEE"/>
<path d="M230.012 147.308C230.012 147.308 229.885 149.374 229.726 150.106" stroke="black" stroke-miterlimit="10" stroke-linecap="round" stroke-linejoin="round"/>
<path d="M225.243 134.113C224.098 132.651 224.066 130.393 225.147 128.899C225.592 128.295 226.165 127.818 226.578 127.214C227.5 125.815 227.341 123.78 226.228 122.54" stroke="#DDDBEE" stroke-width="2" stroke-miterlimit="10" stroke-linecap="round" stroke-linejoin="round"/>
<path d="M229.249 132.333C228.358 131.411 228.327 129.789 229.217 128.867C229.63 128.454 230.171 128.168 230.52 127.659C230.997 126.96 230.902 126.006 230.775 125.147" stroke="#DDDBEE" stroke-width="2" stroke-miterlimit="10" stroke-linecap="round" stroke-linejoin="round"/>
<path d="M206.516 152.491H152.401L151.448 118.725C151.448 117.58 152.401 116.626 153.546 116.626H205.339C206.516 116.626 207.469 117.58 207.469 118.757L206.516 152.491Z" fill="#E2E2E2" stroke="black" stroke-miterlimit="10"/>
<path d="M179.458 137.293C180.038 137.293 180.508 136.41 180.508 135.321C180.508 134.233 180.038 133.35 179.458 133.35C178.879 133.35 178.409 134.233 178.409 135.321C178.409 136.41 178.879 137.293 179.458 137.293Z" fill="white" stroke="black" stroke-miterlimit="10" stroke-linecap="round" stroke-linejoin="round"/>
<path d="M180.985 136.307C180.985 136.307 180.857 137.929 179.649 138.151L180.985 136.307Z" fill="#E2E2E2"/>
<path d="M180.985 136.307C180.985 136.307 180.857 137.929 179.649 138.151" stroke="black" stroke-miterlimit="10" stroke-linecap="round" stroke-linejoin="round"/>
<path d="M206.452 152.427H152.401V154.208H206.452V152.427Z" fill="white" stroke="black" stroke-miterlimit="10"/>
<path d="M117.69 133.76L116.786 133.576L114.137 146.567L115.041 146.751L117.69 133.76Z" fill="#EEEEF7" stroke="black" stroke-width="0.5" stroke-miterlimit="10" stroke-linecap="round" stroke-linejoin="round"/>
<path d="M114.247 133.7L113.334 133.828L115.177 146.958L116.09 146.83L114.247 133.7Z" fill="#EEEEF7" stroke="black" stroke-width="0.5" stroke-miterlimit="10" stroke-linecap="round" stroke-linejoin="round"/>
<path d="M113.835 135.64C114.537 135.64 115.107 134.828 115.107 133.827C115.107 132.826 114.537 132.015 113.835 132.015C113.132 132.015 112.563 132.826 112.563 133.827C112.563 134.828 113.132 135.64 113.835 135.64Z" fill="#EEEEF7" stroke="black" stroke-width="0.5" stroke-miterlimit="10" stroke-linecap="round" stroke-linejoin="round"/>
<path d="M113.835 135.067C114.309 135.067 114.693 134.512 114.693 133.827C114.693 133.142 114.309 132.587 113.835 132.587C113.361 132.587 112.976 133.142 112.976 133.827C112.976 134.512 113.361 135.067 113.835 135.067Z" fill="#EEEEF7" stroke="black" stroke-width="0.5" stroke-miterlimit="10" stroke-linecap="round" stroke-linejoin="round"/>
<path d="M117.173 135.64C117.876 135.64 118.445 134.828 118.445 133.827C118.445 132.826 117.876 132.015 117.173 132.015C116.471 132.015 115.901 132.826 115.901 133.827C115.901 134.828 116.471 135.64 117.173 135.64Z" fill="#EEEEF7" stroke="black" stroke-width="0.5" stroke-miterlimit="10" stroke-linecap="round" stroke-linejoin="round"/>
<path d="M117.173 135.067C117.647 135.067 118.032 134.512 118.032 133.827C118.032 133.142 117.647 132.587 117.173 132.587C116.699 132.587 116.315 133.142 116.315 133.827C116.315 134.512 116.699 135.067 117.173 135.067Z" fill="#EEEEF7" stroke="black" stroke-width="0.5" stroke-miterlimit="10" stroke-linecap="round" stroke-linejoin="round"/>
<path d="M121.624 133.827H120.639V150.36H121.624V133.827Z" fill="#EEEEF7" stroke="black" stroke-width="0.5" stroke-miterlimit="10" stroke-linecap="round" stroke-linejoin="round"/>
<path d="M119.967 132.611L118.985 132.703L120.52 149.165L121.502 149.073L119.967 132.611Z" fill="#EEEEF7" stroke="black" stroke-width="0.5" stroke-miterlimit="10" stroke-linecap="round" stroke-linejoin="round"/>
<path d="M120.639 151.855C120.48 151.409 122.419 133.223 122.419 133.223L125.98 133.636L123.85 151.823H120.639V151.855Z" fill="#EEEEF7" stroke="black" stroke-width="0.5" stroke-miterlimit="10" stroke-linecap="round" stroke-linejoin="round"/>
<path d="M124.104 154.017H115.393C114.534 154.017 113.835 153.413 113.771 152.618L112.913 139.169C112.849 138.31 113.58 137.611 114.534 137.611H124.867C125.789 137.611 126.521 138.31 126.489 139.169L125.726 152.618C125.694 153.381 124.963 154.017 124.104 154.017Z" fill="#6D6D6D" stroke="black" stroke-miterlimit="10"/>
<path d="M124.168 149.216C124.168 149.216 124.104 151.886 123.755 152.268L124.168 149.216Z" fill="#6D6D6D"/>
<path d="M124.168 149.216C124.168 149.216 124.104 151.886 123.755 152.268" stroke="black" stroke-miterlimit="10"/>
<path d="M84.5838 133.064C84.2023 132.651 83.9797 132.142 83.7572 131.633C83.5982 131.252 83.4392 130.902 83.2802 130.521C83.1531 130.234 83.0259 129.948 82.8033 129.726C82.5808 129.503 82.2628 129.376 81.9767 129.44C81.6269 129.535 81.4362 129.948 81.3408 130.298C81.309 130.457 81.2772 130.648 81.2772 130.807C81.309 131.093 81.4362 131.347 81.5633 131.602C82.0403 132.46 82.6126 133.255 83.312 133.954C83.5346 134.177 83.789 134.399 84.0751 134.558C84.4884 134.813 84.9336 135.004 85.4105 135.131C85.6012 135.194 85.792 135.226 85.951 135.131C86.0464 135.067 86.1418 135.004 86.2053 134.876C86.4915 134.463 86.4915 133.923 86.2371 133.477C86.1735 133.382 86.0782 133.318 85.951 133.35C85.951 133.446 85.951 133.382 85.9828 133.477C85.4741 133.732 84.9018 133.414 84.5838 133.064Z" fill="#CCCCCB" stroke="black" stroke-miterlimit="10" stroke-linecap="round" stroke-linejoin="round"/>
<path d="M89.194 137.166C88.0494 136.053 87.5089 134.4 87.4135 132.81C87.3181 131.22 87.6043 129.599 87.8904 128.041C88.0812 127.055 88.2402 126.069 88.0176 125.084C87.9858 124.925 87.9222 124.734 87.7951 124.607C87.5407 124.384 87.0956 124.48 86.873 124.734C86.6505 124.988 86.5551 125.338 86.4915 125.688C85.8874 128.581 85.6648 131.57 85.8556 134.527C85.9192 135.512 86.0464 136.562 86.5869 137.388C87.1592 138.278 88.0812 138.851 89.0668 139.232C89.4802 139.391 89.8935 139.518 90.3386 139.487C90.9745 139.423 91.9919 138.533 91.1971 137.961C91.0063 137.833 90.593 137.96 90.3704 137.929C89.9253 137.77 89.512 137.452 89.194 137.166Z" fill="#CCCCCB" stroke="black" stroke-miterlimit="10" stroke-linecap="round" stroke-linejoin="round"/>
<path d="M90.7519 134.431C90.7201 131.602 90.6884 128.772 90.6566 125.942C90.6248 124.162 90.6248 122.254 91.2924 120.76C91.5468 120.219 91.9919 119.71 92.3735 119.965C92.5642 120.092 92.6914 120.346 92.7868 120.632C93.2637 121.841 93.3909 123.271 93.5181 124.67C93.9314 129.503 94.3447 134.399 94.0268 139.232C93.9632 140.25 93.836 141.299 93.3909 142.062C91.0381 146.068 90.7519 135.894 90.7519 134.431Z" fill="#CCCCCB" stroke="black" stroke-miterlimit="10" stroke-linecap="round" stroke-linejoin="round"/>
<path d="M96.9837 129.821C96.8565 127.913 96.6975 126.006 96.5067 124.098C96.4432 123.367 96.3478 122.636 96.6021 121.936C96.7293 121.618 96.9837 121.3 97.3016 121.364C97.6196 121.427 97.7785 121.809 97.8421 122.159C98.5734 125.656 99.1775 129.217 98.9231 132.778C98.8913 133.287 98.8277 133.827 98.6052 134.304C98.3826 134.781 98.0329 135.194 97.6513 135.576C97.1744 136.021 96.6339 136.403 96.0934 136.72C95.2668 137.166 93.836 137.579 93.2955 136.466C92.8822 135.544 93.8996 135.226 94.5673 134.94C96.8247 133.954 97.1426 132.11 96.9837 129.821Z" fill="#CCCCCB" stroke="black" stroke-miterlimit="10" stroke-linecap="round" stroke-linejoin="round"/>
<path d="M91.1335 122.349C91.1335 122.477 91.2289 122.604 91.3242 122.667" stroke="black" stroke-miterlimit="10" stroke-linecap="round" stroke-linejoin="round"/>
<path d="M92.3735 121.427C92.2781 121.555 92.2145 121.745 92.2463 121.904" stroke="black" stroke-miterlimit="10" stroke-linecap="round" stroke-linejoin="round"/>
<path d="M92.6596 123.399C92.6278 123.558 92.596 123.748 92.5642 123.907" stroke="black" stroke-miterlimit="10" stroke-linecap="round" stroke-linejoin="round"/>
<path d="M91.8012 125.115C91.8645 125.115 91.9278 125.115 91.991 125.115" stroke="black" stroke-miterlimit="10" stroke-linecap="round" stroke-linejoin="round"/>
<path d="M91.674 127.532C91.7685 127.563 91.8315 127.595 91.926 127.626" stroke="black" stroke-miterlimit="10" stroke-linecap="round" stroke-linejoin="round"/>
<path d="M93.1683 126.578C93.1365 126.769 93.1047 126.928 93.0729 127.118" stroke="black" stroke-miterlimit="10" stroke-linecap="round" stroke-linejoin="round"/>
<path d="M92.1191 129.789C92.1508 129.853 92.2141 129.884 92.2457 129.948C92.2141 129.884 92.1508 129.853 92.1191 129.789Z" stroke="black" stroke-miterlimit="10" stroke-linecap="round" stroke-linejoin="round"/>
<path d="M91.674 132.015C91.7685 132.078 91.8315 132.141 91.926 132.204" stroke="black" stroke-miterlimit="10" stroke-linecap="round" stroke-linejoin="round"/>
<path d="M93.2952 131.506C93.2319 131.538 93.2002 131.633 93.2319 131.696" stroke="black" stroke-miterlimit="10" stroke-linecap="round" stroke-linejoin="round"/>
<path d="M92.1184 134.272C92.0554 134.335 92.0239 134.461 92.0554 134.524" stroke="black" stroke-miterlimit="10" stroke-linecap="round" stroke-linejoin="round"/>
<path d="M91.9283 136.975C92.0555 136.975 92.1827 136.975 92.3099 137.007C92.1827 136.975 92.0555 136.975 91.9283 136.975Z" stroke="black" stroke-miterlimit="10" stroke-linecap="round" stroke-linejoin="round"/>
<path d="M93.3591 137.547C93.3273 137.833 93.2637 138.119 93.2319 138.405" stroke="black" stroke-miterlimit="10" stroke-linecap="round" stroke-linejoin="round"/>
<path d="M94.154 136.307C94.1857 136.339 94.2493 136.403 94.281 136.434" stroke="black" stroke-miterlimit="10" stroke-linecap="round" stroke-linejoin="round"/>
<path d="M96.4431 134.4C96.4749 134.4 96.5385 134.4 96.5702 134.4" stroke="black" stroke-miterlimit="10" stroke-linecap="round" stroke-linejoin="round"/>
<path d="M97.9057 130.902C98.0647 130.87 98.2236 130.807 98.3508 130.775" stroke="black" stroke-miterlimit="10" stroke-linecap="round" stroke-linejoin="round"/>
<path d="M97.238 127.691C97.238 127.468 97.1744 127.246 97.1426 127.023" stroke="black" stroke-miterlimit="10" stroke-linecap="round" stroke-linejoin="round"/>
<path d="M97.079 124.766C96.9837 124.639 97.0155 124.448 97.1108 124.353" stroke="black" stroke-miterlimit="10" stroke-linecap="round" stroke-linejoin="round"/>
<path d="M98.0329 124.478C98.1279 124.383 98.1913 124.288 98.2863 124.193C98.2229 124.288 98.1279 124.383 98.0329 124.478Z" stroke="black" stroke-miterlimit="10" stroke-linecap="round" stroke-linejoin="round"/>
<path d="M86.5224 126.641C86.4591 126.577 86.3958 126.514 86.3325 126.451" stroke="black" stroke-miterlimit="10" stroke-linecap="round" stroke-linejoin="round"/>
<path d="M87.6361 126.896C87.6043 126.705 87.8268 126.515 88.0176 126.515" stroke="black" stroke-miterlimit="10" stroke-linecap="round" stroke-linejoin="round"/>
<path d="M86.5869 129.249C86.5869 129.44 86.5869 129.63 86.5869 129.853" stroke="black" stroke-miterlimit="10" stroke-linecap="round" stroke-linejoin="round"/>
<path d="M86.6505 132.428C86.7458 132.555 86.8094 132.683 86.9048 132.842" stroke="black" stroke-miterlimit="10" stroke-linecap="round" stroke-linejoin="round"/>
<path d="M87.5725 135.384C87.667 135.352 87.7615 135.289 87.8245 135.258" stroke="black" stroke-miterlimit="10" stroke-linecap="round" stroke-linejoin="round"/>
<path d="M86.7123 136.307C86.6178 136.339 86.5233 136.465 86.5233 136.559" stroke="black" stroke-miterlimit="10" stroke-linecap="round" stroke-linejoin="round"/>
<path d="M88.4945 137.674C88.3674 137.77 88.3038 137.929 88.3038 138.088" stroke="black" stroke-miterlimit="10" stroke-linecap="round" stroke-linejoin="round"/>
<path d="M90.0843 138.151C90.1476 138.183 90.2109 138.183 90.2742 138.214" stroke="black" stroke-miterlimit="10" stroke-linecap="round" stroke-linejoin="round"/>
<path d="M81.6587 130.902C81.468 130.87 81.309 130.807 81.1182 130.775" stroke="black" stroke-miterlimit="10" stroke-linecap="round" stroke-linejoin="round"/>
<path d="M82.3264 130.107C82.3264 129.853 82.3264 129.63 82.3264 129.376" stroke="black" stroke-miterlimit="10" stroke-linecap="round" stroke-linejoin="round"/>
<path d="M83.2485 131.379C83.3756 131.22 83.5982 131.093 83.8208 131.061" stroke="black" stroke-miterlimit="10" stroke-linecap="round" stroke-linejoin="round"/>
<path d="M83.5028 132.746C83.63 132.714 83.7572 132.714 83.8843 132.683" stroke="black" stroke-miterlimit="10" stroke-linecap="round" stroke-linejoin="round"/>
<path d="M82.8987 133.541C82.8033 133.605 82.6761 133.668 82.5808 133.732" stroke="black" stroke-miterlimit="10" stroke-linecap="round" stroke-linejoin="round"/>
<path d="M98.0647 154.048H87.0002L83.8843 139.932H100.926L98.0647 154.048Z" fill="#F4F4F5" stroke="black" stroke-miterlimit="10" stroke-linecap="round" stroke-linejoin="round"/>
<path d="M84.5202 142.825H100.322" stroke="black" stroke-miterlimit="10" stroke-linecap="round" stroke-linejoin="round"/>
<path d="M97.0155 148.739C97.0155 148.739 96.4114 151.791 96.0934 152.268L97.0155 148.739Z" fill="#F4F4F5"/>
<path d="M97.0155 148.739C97.0155 148.739 96.4114 151.791 96.0934 152.268" stroke="black" stroke-miterlimit="10" stroke-linecap="round" stroke-linejoin="round"/>
<path d="M164.388 97.7406L163.625 97.8995C163.498 97.9313 163.339 97.8359 163.307 97.7087L160 82.0659C159.968 81.9387 160.064 81.7797 160.191 81.7479L160.954 81.589C161.081 81.5572 161.24 81.6525 161.272 81.7797L164.579 97.4226C164.61 97.5816 164.515 97.7406 164.388 97.7406Z" fill="#EEDBEB" stroke="black" stroke-width="0.5" stroke-miterlimit="10" stroke-linecap="round" stroke-linejoin="round"/>
</svg>
