<svg width="87" height="93" viewBox="0 0 87 93" fill="none" xmlns="http://www.w3.org/2000/svg">
<path d="M1.744 1.11151H83.1514V62.9337H1.744V1.11151Z" fill="white"/>
<path d="M1.74399 0.674923C0.474026 0.572323 1.74399 62.5028 1.30737 62.9349C1.21161 64.2071 82.717 62.9349 83.1594 63.3715C84.4293 63.473 83.1594 1.54246 83.596 1.1104C83.6838 -0.160697 2.17947 1.11154 1.74399 0.674923ZM2.1806 1.54816H82.7159V62.4971H2.17947L2.1806 1.54816Z" fill="#D5F4FF"/>
<path d="M1.744 19.6935C1.20136 19.6844 1.16032 20.5748 1.744 20.5656C2.2 20.1324 83.6678 21.3978 83.588 20.1301C83.6861 18.8568 2.17834 20.129 1.744 19.6935Z" fill="#D5F4FF"/>
<path d="M1.744 43.3656C1.20136 43.3576 1.16032 44.248 1.744 44.2388C2.2 43.8056 83.6678 45.071 83.588 43.8034C83.6861 42.53 2.17834 43.8079 1.744 43.3656Z" fill="#D5F4FF"/>
<path d="M3.55319 2.87393H8.15081V19.6924H3.55319V2.87393Z" fill="#D5F4FF"/>
<path d="M3.55322 4.12451H8.15084V5.38991H3.55322V4.12451Z" fill="#B0EBFF"/>
<path d="M3.55322 8.39154H8.15084V17.0772H3.55322V8.39154Z" fill="#B0EBFF"/>
<path d="M8.98985 2.87393H13.5875V19.6924H8.98985V2.87393Z" fill="#D5F4FF"/>
<path d="M8.98985 4.12451H13.5875V5.38991H8.98985V4.12451Z" fill="#B0EBFF"/>
<path d="M8.98985 8.39154H13.5875V17.0772H8.98985V8.39154Z" fill="#B0EBFF"/>
<path d="M14.4276 2.87393H19.0253V19.6924H14.4276V2.87393Z" fill="#D5F4FF"/>
<path d="M14.4276 4.12451H19.0252V5.38991H14.4276V4.12451Z" fill="#B0EBFF"/>
<path d="M14.4276 8.39154H19.0252V17.0772H14.4276V8.39154Z" fill="#B0EBFF"/>
<path d="M20.0752 2.87393H24.6728V19.6924H20.0752V2.87393Z" fill="#D5F4FF"/>
<path d="M20.0752 4.12451H24.6728V5.38991H20.0752V4.12451Z" fill="#B0EBFF"/>
<path d="M20.0752 8.39154H24.6728V17.0772H20.0752V8.39154Z" fill="#B0EBFF"/>
<path d="M67.5459 2.69614L71.7047 4.6558L64.5375 19.868L60.3788 17.9094L67.5459 2.69614Z" fill="#D5F4FF"/>
<path d="M67.0124 3.82703L71.17 5.78669L70.6285 6.93467L66.4698 4.97501L67.0124 3.82703Z" fill="#B0EBFF"/>
<path d="M65.1941 7.6882L69.3528 9.64672L65.6524 17.5047L61.4925 15.5451L65.1941 7.6882Z" fill="#B0EBFF"/>
<path d="M71.74 2.87393H76.3376V19.6924H71.74V2.87393Z" fill="#D5F4FF"/>
<path d="M71.74 4.12451H76.3376V5.38991H71.74V4.12451Z" fill="#B0EBFF"/>
<path d="M71.74 8.39154H76.3376V17.0772H71.74V8.39154Z" fill="#B0EBFF"/>
<path d="M77.1732 2.87393H81.772V19.6924H77.1732V2.87393Z" fill="#D5F4FF"/>
<path d="M77.1732 4.12451H81.772V5.38991H77.1732V4.12451Z" fill="#B0EBFF"/>
<path d="M77.1732 8.39154H81.772V17.0772H77.1732V8.39154Z" fill="#B0EBFF"/>
<path d="M3.55319 26.5472H8.15081V43.3656H3.55319V26.5472Z" fill="#D5F4FF"/>
<path d="M3.55322 27.7977H8.15084V29.0666H3.55322V27.7977Z" fill="#B0EBFF"/>
<path d="M3.55322 32.0659H8.15084V40.7515H3.55322V32.0659Z" fill="#B0EBFF"/>
<path d="M8.98985 26.5472H13.5875V43.3656H8.98985V26.5472Z" fill="#D5F4FF"/>
<path d="M8.98985 27.7977H13.5875V29.0666H8.98985V27.7977Z" fill="#B0EBFF"/>
<path d="M8.98985 32.0659H13.5875V40.7515H8.98985V32.0659Z" fill="#B0EBFF"/>
<path d="M14.4276 26.5472H19.0253V43.3656H14.4276V26.5472Z" fill="#D5F4FF"/>
<path d="M14.4276 27.7977H19.0252V29.0666H14.4276V27.7977Z" fill="#B0EBFF"/>
<path d="M14.4276 32.0659H19.0252V40.7515H14.4276V32.0659Z" fill="#B0EBFF"/>
<path d="M19.87 26.5472H24.4676V43.3656H19.87V26.5472Z" fill="#D5F4FF"/>
<path d="M19.87 27.7977H24.4676V29.0666H19.87V27.7977Z" fill="#B0EBFF"/>
<path d="M19.87 32.0659H24.4676V40.7515H19.87V32.0659Z" fill="#B0EBFF"/>
<path d="M60.861 26.5472H65.4586V43.3656H60.861V26.5472Z" fill="#D5F4FF"/>
<path d="M60.861 27.7977H65.4586V29.0666H60.861V27.7977Z" fill="#B0EBFF"/>
<path d="M60.861 32.0659H65.4586V40.7515H60.861V32.0659Z" fill="#B0EBFF"/>
<path d="M66.2976 26.5472H70.8953V43.3656H66.2976V26.5472Z" fill="#D5F4FF"/>
<path d="M66.2977 27.7977H70.8953V29.0666H66.2977V27.7977Z" fill="#B0EBFF"/>
<path d="M66.2977 32.0659H70.8953V40.7515H66.2977V32.0659Z" fill="#B0EBFF"/>
<path d="M71.74 26.5472H76.3376V43.3656H71.74V26.5472Z" fill="#D5F4FF"/>
<path d="M71.74 27.7977H76.3376V29.0666H71.74V27.7977Z" fill="#B0EBFF"/>
<path d="M71.74 32.0659H76.3376V40.7515H71.74V32.0659Z" fill="#B0EBFF"/>
<path d="M77.1732 26.5472H81.772V43.3656H77.1732V26.5472Z" fill="#D5F4FF"/>
<path d="M77.1732 27.7977H81.772V29.0666H77.1732V27.7977Z" fill="#B0EBFF"/>
<path d="M77.1732 32.0659H81.772V40.7515H77.1732V32.0659Z" fill="#B0EBFF"/>
<path d="M3.55319 45.608H8.15081V62.4264H3.55319V45.608Z" fill="#D5F4FF"/>
<path d="M3.55322 46.8586H8.15084V48.1274H3.55322V46.8586Z" fill="#B0EBFF"/>
<path d="M3.55322 51.1256H8.15084V59.8113H3.55322V51.1256Z" fill="#B0EBFF"/>
<path d="M8.98985 45.608H13.5875V62.4264H8.98985V45.608Z" fill="#D5F4FF"/>
<path d="M8.98985 46.8586H13.5875V48.1274H8.98985V46.8586Z" fill="#B0EBFF"/>
<path d="M8.98985 51.1256H13.5875V59.8113H8.98985V51.1256Z" fill="#B0EBFF"/>
<path d="M14.4276 45.608H19.0253V62.4264H14.4276V45.608Z" fill="#D5F4FF"/>
<path d="M14.4276 46.8586H19.0252V48.1274H14.4276V46.8586Z" fill="#B0EBFF"/>
<path d="M14.4276 51.1256H19.0252V59.8113H14.4276V51.1256Z" fill="#B0EBFF"/>
<path d="M19.87 45.608H24.4676V62.4264H19.87V45.608Z" fill="#D5F4FF"/>
<path d="M19.87 46.8586H24.4676V48.1274H19.87V46.8586Z" fill="#B0EBFF"/>
<path d="M19.87 51.1256H24.4676V59.8113H19.87V51.1256Z" fill="#B0EBFF"/>
<path d="M60.861 45.608H65.4586V62.4264H60.861V45.608Z" fill="#D5F4FF"/>
<path d="M60.861 46.8586H65.4586V48.1274H60.861V46.8586Z" fill="#B0EBFF"/>
<path d="M60.861 51.1256H65.4586V59.8113H60.861V51.1256Z" fill="#B0EBFF"/>
<path d="M66.2977 45.608H70.8953V62.4265H66.2977V45.608Z" fill="#D5F4FF"/>
<path d="M66.2976 46.8586H70.8953V48.1275H66.2976V46.8586Z" fill="#B0EBFF"/>
<path d="M66.2976 51.1257H70.8953V59.8113H66.2976V51.1257Z" fill="#B0EBFF"/>
<path d="M71.74 45.608H76.3376V62.4265H71.74V45.608Z" fill="#D5F4FF"/>
<path d="M71.74 46.8586H76.3376V48.1275H71.74V46.8586Z" fill="#B0EBFF"/>
<path d="M71.74 51.1257H76.3376V59.8113H71.74V51.1257Z" fill="#B0EBFF"/>
<path d="M77.1733 45.608H81.772V62.4265H77.1733V45.608Z" fill="#D5F4FF"/>
<path d="M77.1733 46.8586H81.772V48.1275H77.1733V46.8586Z" fill="#B0EBFF"/>
<path d="M77.1733 51.1257H81.772V59.8113H77.1733V51.1257Z" fill="#B0EBFF"/>
<path d="M55.4232 26.5472H60.0208V43.3656H55.4232V26.5472Z" fill="#D5F4FF"/>
<path d="M55.4232 27.7977H60.0208V29.0666H55.4232V27.7977Z" fill="#B0EBFF"/>
<path d="M55.4232 32.0659H60.0208V40.7515H55.4232V32.0659Z" fill="#B0EBFF"/>
<path d="M55.4232 45.608H60.0208V62.4264H55.4232V45.608Z" fill="#D5F4FF"/>
<path d="M55.4232 46.8586H60.0208V48.1274H55.4232V46.8586Z" fill="#B0EBFF"/>
<path d="M55.4232 51.1256H60.0208V59.8113H55.4232V51.1256Z" fill="#B0EBFF"/>
<path d="M25.3716 26.5472H29.9692V43.3656H25.3716V26.5472Z" fill="#D5F4FF"/>
<path d="M25.3716 27.7977H29.9692V29.0666H25.3716V27.7977Z" fill="#B0EBFF"/>
<path d="M25.3716 32.0659H29.9692V40.7515H25.3716V32.0659Z" fill="#B0EBFF"/>
<path d="M25.3716 45.608H29.9692V62.4264H25.3716V45.608Z" fill="#D5F4FF"/>
<path d="M25.3716 46.8586H29.9692V48.1274H25.3716V46.8586Z" fill="#B0EBFF"/>
<path d="M25.3716 51.1256H29.9692V59.8113H25.3716V51.1256Z" fill="#B0EBFF"/>
<path d="M13.8977 68C13.5641 68.0025 13.2351 68.0781 12.9338 68.2216C12.6326 68.3651 12.3666 68.573 12.1545 68.8305C11.9424 69.0881 11.7894 69.389 11.7063 69.7122C11.6232 70.0353 11.612 70.3728 11.6736 70.7007H16.1299C16.1915 70.3721 16.1802 70.034 16.0967 69.7103C16.0131 69.3866 15.8594 69.0852 15.6464 68.8275C15.4334 68.5698 15.1664 68.3621 14.8642 68.2191C14.562 68.0761 14.2321 68.0013 13.8977 68Z" fill="#D7E9F5"/>
<path d="M13.8647 68.8174C13.9697 68.8165 14.0739 68.8365 14.1711 68.8763C14.2684 68.916 14.3567 68.9748 14.431 69.0491C14.5053 69.1234 14.564 69.2117 14.6038 69.3089C14.6436 69.4062 14.6636 69.5103 14.6627 69.6154V91.606C14.6746 91.7173 14.663 91.8299 14.6286 91.9365C14.5942 92.043 14.5377 92.1412 14.4629 92.2245C14.388 92.3078 14.2965 92.3744 14.1942 92.42C14.0919 92.4656 13.9812 92.4892 13.8692 92.4892C13.7572 92.4892 13.6465 92.4656 13.5442 92.42C13.442 92.3744 13.3504 92.3078 13.2756 92.2245C13.2008 92.1412 13.1443 92.043 13.1099 91.9365C13.0754 91.8299 13.0638 91.7173 13.0758 91.606V69.6108C13.0755 69.5069 13.0957 69.404 13.1351 69.3079C13.1746 69.2118 13.2326 69.1244 13.3059 69.0507C13.3792 68.977 13.4662 68.9185 13.5621 68.8785C13.658 68.8384 13.7608 68.8177 13.8647 68.8174Z" fill="#D7E9F5"/>
<path d="M3.82242 71.2786C3.46446 71.2934 3.29574 71.8224 3.5226 72.0766C3.20454 72.1484 3.0666 72.6272 3.28434 72.8666C2.96514 72.9373 2.82833 73.4173 3.04493 73.6555C2.72573 73.7273 2.58894 74.2061 2.80554 74.4444C2.48634 74.5162 2.34953 74.995 2.56614 75.2344C2.24694 75.3062 2.11013 75.785 2.32673 76.0233C2.24494 76.0469 2.17122 76.0925 2.1137 76.1553C2.05618 76.218 2.01708 76.2954 2.00069 76.379C1.97909 76.4528 1.97569 76.5308 1.99078 76.6062C2.00587 76.6817 2.039 76.7523 2.08734 76.8122C1.76928 76.884 1.63133 77.3628 1.84793 77.6022C1.52987 77.674 1.39194 78.1528 1.60854 78.3911C1.2255 78.472 1.11834 79.1572 1.52646 79.278C1.92546 79.3612 2.15459 78.7604 1.90493 78.4903C2.22413 78.4196 2.36094 77.9396 2.14434 77.7014C2.4624 77.6296 2.60033 77.1508 2.38373 76.9114C2.70179 76.8407 2.83974 76.3607 2.62313 76.1225C2.9412 76.0507 3.07914 75.5719 2.86254 75.3336C3.1806 75.2618 3.31853 74.7818 3.10193 74.5436C3.41999 74.4729 3.55793 73.993 3.34019 73.7547C3.65939 73.6829 3.7962 73.2041 3.5796 72.9658C3.8988 72.894 4.0356 72.4141 3.819 72.1758C4.23738 72.0926 4.30692 71.2969 3.82242 71.2786ZM5.34317 71.2786C4.85868 71.298 4.92936 72.0926 5.34317 72.1735C5.12886 72.4118 5.26338 72.8917 5.58258 72.9635C5.36826 73.2018 5.50277 73.6806 5.82197 73.7524C5.60766 73.9907 5.74218 74.4706 6.06138 74.5413C5.84706 74.7796 5.98157 75.2595 6.30077 75.3313C6.08645 75.5696 6.22097 76.0484 6.53903 76.1202C6.32585 76.3585 6.46037 76.8384 6.77843 76.9091C6.56525 77.1485 6.69978 77.6273 7.01784 77.6991C6.80466 77.9374 6.93918 78.4162 7.25724 78.488C7.00758 78.7582 7.23671 79.3589 7.63571 79.2757C8.04383 79.1537 7.93667 78.4697 7.55363 78.3888C7.76681 78.1505 7.6323 77.6717 7.31424 77.5999C7.52742 77.3605 7.39404 76.8817 7.07484 76.8099C7.12317 76.75 7.1563 76.6794 7.17139 76.6039C7.18648 76.5285 7.18308 76.4505 7.16148 76.3767C7.1451 76.2932 7.10599 76.2158 7.04847 76.153C6.99095 76.0903 6.91723 76.0446 6.83543 76.021C6.8837 75.9609 6.91677 75.89 6.93185 75.8144C6.94693 75.7388 6.94358 75.6607 6.92208 75.5867C6.90551 75.5033 6.86632 75.4262 6.80881 75.3637C6.7513 75.3011 6.67768 75.2556 6.59603 75.2321C6.80921 74.9927 6.6747 74.5139 6.35664 74.4421C6.56982 74.2039 6.43643 73.7251 6.11723 73.6532C6.33041 73.415 6.19704 72.935 5.87784 72.8644C6.09216 72.625 5.95763 72.1462 5.63843 72.0743C5.86643 71.8224 5.69657 71.2934 5.33861 71.2763L5.34317 71.2786ZM3.82584 71.453C4.1097 71.4827 3.9843 72.0515 3.7221 72.0048C3.4941 71.9227 3.5967 71.4656 3.82584 71.453ZM5.33976 71.453C5.56776 71.4667 5.6715 71.9239 5.4435 72.0048C5.1813 72.0504 5.0616 71.4815 5.33976 71.453ZM3.58643 72.2419C4.10171 72.4232 3.29915 73.2394 3.36755 72.4699C3.37674 72.4142 3.40257 72.3627 3.44164 72.322C3.48071 72.2813 3.53119 72.2534 3.58643 72.2419ZM5.57915 72.2419C5.6344 72.2534 5.68488 72.2813 5.72395 72.322C5.76302 72.3627 5.78885 72.4142 5.79804 72.4699C5.86644 73.2383 5.06159 72.4209 5.57915 72.2408V72.2419ZM3.3516 73.0308C3.86688 73.2109 3.06432 74.0272 3.13272 73.2588C3.1419 73.2031 3.16773 73.1516 3.2068 73.1109C3.24587 73.0702 3.29635 73.0422 3.3516 73.0308ZM5.82311 73.0308C5.87842 73.0421 5.92899 73.07 5.96808 73.1107C6.00718 73.1514 6.03296 73.2031 6.042 73.2588C6.1104 74.0237 5.30783 73.2064 5.82311 73.0308ZM3.11219 73.8197C3.62747 73.9998 2.82491 74.816 2.89331 74.0477C2.9025 73.992 2.92833 73.9404 2.9674 73.8997C3.00647 73.859 3.05695 73.8311 3.11219 73.8197ZM6.06251 73.8197C6.11776 73.8311 6.16824 73.859 6.20731 73.8997C6.24638 73.9404 6.27221 73.992 6.28139 74.0477C6.34979 74.8126 5.54724 73.9964 6.06251 73.8197ZM2.87051 74.6086C3.38579 74.7898 2.58324 75.6061 2.65164 74.8366C2.66067 74.7812 2.68616 74.7298 2.7248 74.6892C2.76343 74.6485 2.81341 74.6204 2.86823 74.6086H2.87051ZM6.29963 74.6086C6.35488 74.62 6.40536 74.6479 6.44443 74.6886C6.4835 74.7293 6.50933 74.7809 6.51852 74.8366C6.58463 75.6061 5.78207 74.7887 6.29735 74.6086H6.29963ZM2.63226 75.3986C3.1464 75.5787 2.34383 76.3949 2.41223 75.6266C2.42142 75.5709 2.44725 75.5193 2.48632 75.4786C2.52539 75.4379 2.57587 75.41 2.63111 75.3986H2.63226ZM6.5379 75.3986C6.59342 75.4097 6.64423 75.4374 6.68354 75.4782C6.72286 75.5189 6.7488 75.5707 6.75792 75.6266C6.82518 76.3915 6.02376 75.5741 6.5379 75.3986ZM2.39285 76.1875C2.90699 76.3676 2.10444 77.1838 2.17284 76.4155C2.18202 76.3598 2.20785 76.3082 2.24692 76.2675C2.28599 76.2268 2.33647 76.1989 2.39172 76.1875H2.39285ZM6.77729 76.1875C6.83275 76.1987 6.88348 76.2265 6.92276 76.2672C6.96205 76.308 6.98805 76.3596 6.99732 76.4155C7.06458 77.1815 6.26315 76.3642 6.77729 76.1875ZM2.15346 76.9763C2.6676 77.1576 1.86503 77.9738 1.93343 77.2043C1.9427 77.1485 1.9687 77.0968 2.00799 77.0561C2.04728 77.0154 2.098 76.9876 2.15346 76.9763ZM7.01669 76.9763C7.07215 76.9876 7.12288 77.0154 7.16217 77.0561C7.20146 77.0968 7.22745 77.1485 7.23671 77.2043C7.30397 77.9704 6.50255 77.153 7.01669 76.9763ZM1.91405 77.7664C2.42819 77.9465 1.62564 78.7627 1.69404 77.9944C1.7033 77.9389 1.72901 77.8875 1.76783 77.8469C1.80666 77.8062 1.85681 77.7782 1.91177 77.7664H1.91405ZM7.25609 77.7664C7.31148 77.7777 7.36212 77.8056 7.40139 77.8463C7.44065 77.887 7.4667 77.9386 7.47611 77.9944C7.54109 78.7627 6.73968 77.951 7.25382 77.7664H7.25609ZM1.67009 78.5552C2.18423 78.7354 1.38282 79.5516 1.45008 78.7832C1.45949 78.7275 1.48554 78.6759 1.5248 78.6352C1.56406 78.5945 1.61471 78.5666 1.67009 78.5552ZM7.49093 78.5552C7.54632 78.5666 7.59696 78.5945 7.63623 78.6352C7.67549 78.6759 7.70154 78.7275 7.71095 78.7832C7.77821 79.5493 6.97679 78.7319 7.49093 78.5552Z" fill="#322F4A"/>
<path d="M8.8407 79.0101H0C0.02394 84.6075 8.8236 84.6041 8.8407 79.0101Z" fill="#F6BA34"/>
<path d="M6.4125 79.0101C6.13662 81.1544 5.04449 82.486 4.04243 83.2714C6.59261 83.4994 8.85665 81.5021 8.84069 79.0101H6.4125Z" fill="#EA792F"/>
<path d="M23.907 71.2786C24.2649 71.2934 24.4348 71.8224 24.2068 72.0766C24.5248 72.1484 24.6628 72.6272 24.4462 72.8666C24.7642 72.9373 24.9022 73.4173 24.6844 73.6555C25.0036 73.7273 25.1404 74.2061 24.9238 74.4444C25.243 74.5162 25.3798 74.995 25.1632 75.2344C25.4824 75.3062 25.6192 75.785 25.4026 76.0233C25.4844 76.0469 25.5582 76.0925 25.6157 76.1553C25.6732 76.218 25.7123 76.2954 25.7287 76.379C25.7503 76.4528 25.7537 76.5308 25.7386 76.6062C25.7235 76.6817 25.6904 76.7523 25.642 76.8122C25.9612 76.884 26.098 77.3628 25.8814 77.6022C26.1995 77.674 26.3374 78.1528 26.1208 78.3911C26.5039 78.472 26.611 79.1572 26.2029 79.278C25.8039 79.3612 25.5748 78.7604 25.8244 78.4903C25.5064 78.4196 25.3684 77.9396 25.585 77.7014C25.267 77.6296 25.129 77.1508 25.3456 76.9114C25.0276 76.8407 24.8896 76.3607 25.1062 76.1225C24.7882 76.0507 24.6502 75.5719 24.8668 75.3336C24.5488 75.2618 24.4108 74.7818 24.6286 74.5436C24.3094 74.4729 24.1726 73.993 24.3892 73.7547C24.07 73.6829 23.9332 73.2041 24.1498 72.9658C23.8306 72.894 23.6938 72.4141 23.9104 72.1758C23.492 72.0926 23.4225 71.2969 23.907 71.2786ZM22.3862 71.2786C22.8707 71.298 22.8 72.0926 22.3862 72.1735C22.6005 72.4118 22.466 72.8917 22.1468 72.9635C22.3611 73.2018 22.2266 73.6806 21.9074 73.7524C22.1217 73.9907 21.9872 74.4706 21.668 74.5413C21.8823 74.7796 21.7478 75.2595 21.4286 75.3313C21.6429 75.5696 21.5084 76.0484 21.1903 76.1202C21.4035 76.3585 21.269 76.8384 20.9509 76.9091C21.1641 77.1485 21.0296 77.6273 20.7115 77.6991C20.9259 77.9374 20.7902 78.4162 20.4721 78.488C20.7218 78.7582 20.4927 79.3589 20.0937 79.2757C19.6855 79.1537 19.7927 78.4697 20.1757 78.3888C19.9626 78.1505 20.0971 77.6717 20.4151 77.5999C20.202 77.3605 20.3365 76.8817 20.6545 76.8099C20.6062 76.75 20.5731 76.6794 20.558 76.6039C20.5429 76.5285 20.5463 76.4505 20.5679 76.3767C20.5843 76.2932 20.6234 76.2158 20.6809 76.153C20.7384 76.0903 20.8121 76.0446 20.8939 76.021C20.8457 75.9609 20.8126 75.89 20.7975 75.8144C20.7824 75.7388 20.7858 75.6607 20.8073 75.5867C20.8239 75.5033 20.8631 75.4262 20.9206 75.3637C20.9781 75.3011 21.0517 75.2556 21.1333 75.2321C20.9202 74.9927 21.0547 74.5139 21.3727 74.4421C21.1596 74.2039 21.2941 73.7251 21.6121 73.6532C21.399 73.415 21.5335 72.935 21.8515 72.8644C21.6384 72.625 21.7717 72.1462 22.0909 72.0743C21.8629 71.8224 22.0328 71.2934 22.3908 71.2763L22.3862 71.2786ZM23.9035 71.453C23.6208 71.4827 23.7462 72.0515 24.0073 72.0048C24.2353 71.9227 24.1327 71.4656 23.9035 71.453ZM22.3896 71.453C22.1616 71.4667 22.0579 71.9239 22.2859 72.0048C22.5481 72.0504 22.6735 71.4815 22.3896 71.453ZM24.1429 72.2419C23.6277 72.4232 24.4302 73.2394 24.363 72.4699C24.3532 72.4143 24.3271 72.3628 24.2879 72.3222C24.2487 72.2816 24.1982 72.2536 24.1429 72.2419ZM22.1502 72.2419C22.095 72.2534 22.0445 72.2813 22.0054 72.322C21.9664 72.3627 21.9405 72.4142 21.9313 72.4699C21.8629 73.2383 22.6655 72.4209 22.1502 72.2408V72.2419ZM24.3823 73.0319C23.8671 73.2121 24.6696 74.0283 24.6012 73.2599C24.592 73.2043 24.5662 73.1527 24.5271 73.112C24.4881 73.0713 24.4376 73.0434 24.3823 73.0319ZM21.9108 73.0319C21.8555 73.0432 21.8049 73.0711 21.7658 73.1118C21.7268 73.1526 21.701 73.2042 21.6919 73.2599C21.6235 74.0249 22.4261 73.2075 21.9108 73.0319ZM24.6217 73.8208C24.1065 74.0009 24.909 74.8172 24.8406 74.0488C24.8314 73.9932 24.8056 73.9416 24.7665 73.9009C24.7275 73.8602 24.677 73.8323 24.6217 73.8208ZM21.6714 73.8208C21.6162 73.8323 21.5657 73.8602 21.5266 73.9009C21.4876 73.9416 21.4617 73.9932 21.4525 74.0488C21.3841 74.8149 22.1867 73.9975 21.6726 73.8208H21.6714ZM24.8634 74.6097C24.3481 74.791 25.1507 75.6072 25.0823 74.8377C25.0732 74.7815 25.0471 74.7295 25.0076 74.6885C24.968 74.6476 24.917 74.6197 24.8611 74.6086L24.8634 74.6097ZM21.4354 74.6097C21.38 74.6209 21.3293 74.6488 21.29 74.6895C21.2507 74.7302 21.2247 74.7819 21.2154 74.8377C21.1459 75.6061 21.9473 74.7887 21.4332 74.6086L21.4354 74.6097ZM25.1028 75.3997C24.5875 75.5798 25.3901 76.3961 25.3217 75.6277C25.3125 75.5721 25.2867 75.5205 25.2476 75.4798C25.2085 75.4391 25.1581 75.4112 25.1028 75.3997ZM21.196 75.3997C21.1405 75.4108 21.0897 75.4386 21.0504 75.4793C21.0111 75.5201 20.9851 75.5718 20.976 75.6277C20.9088 76.3927 21.7102 75.5753 21.196 75.3997ZM25.3411 76.1886C24.8269 76.3687 25.6295 77.185 25.5611 76.4166C25.5519 76.3609 25.5261 76.3094 25.487 76.2687C25.4479 76.228 25.3975 76.2 25.3422 76.1886H25.3411ZM20.9566 76.1886C20.9012 76.1998 20.8505 76.2277 20.8112 76.2684C20.7719 76.3091 20.7459 76.3608 20.7366 76.4166C20.6694 77.1827 21.4708 76.3653 20.9566 76.1886ZM25.5816 76.9763C25.0675 77.1576 25.87 77.9738 25.8016 77.2043C25.7924 77.1487 25.7666 77.0971 25.7276 77.0564C25.6885 77.0157 25.638 76.9878 25.5828 76.9763H25.5816ZM20.7184 76.9763C20.663 76.9877 20.6123 77.0156 20.5731 77.0563C20.5338 77.097 20.5078 77.1486 20.4984 77.2043C20.4311 77.9704 21.2325 77.153 20.7184 76.9763ZM25.821 77.7664C25.3069 77.9465 26.1094 78.7627 26.041 77.9944C26.0316 77.9381 26.005 77.8861 25.9651 77.8453C25.9252 77.8045 25.8737 77.777 25.8176 77.7664H25.821ZM20.479 77.7664C20.4237 77.778 20.3732 77.806 20.334 77.8466C20.2948 77.8873 20.2687 77.9387 20.259 77.9944C20.1883 78.7627 20.9908 77.951 20.4756 77.7664H20.479ZM26.065 78.5552C25.5508 78.7354 26.3534 79.5516 26.285 78.7832C26.2757 78.7274 26.2497 78.6757 26.2104 78.635C26.1712 78.5943 26.1204 78.5665 26.065 78.5552ZM20.2441 78.5552C20.1889 78.5669 20.1384 78.5949 20.0992 78.6355C20.06 78.6762 20.0338 78.7276 20.0241 78.7832C19.9569 79.5493 20.7583 78.7319 20.2441 78.5552Z" fill="#322F4A"/>
<path d="M18.8887 79.0101H27.7294C27.7055 84.6075 18.9115 84.6041 18.8887 79.0101Z" fill="#F6BA34"/>
<path d="M25.2807 79.0101C25.0037 81.1544 23.9058 82.486 22.9106 83.2714C25.4597 83.4994 27.7248 81.5021 27.7077 79.0101H25.2807Z" fill="#EA792F"/>
<path d="M11.7443 69.563C11.6195 69.9298 11.5936 70.3229 11.669 70.703H16.1253C16.2008 70.3229 16.1748 69.9298 16.05 69.563H11.7443Z" fill="#C3D2D1"/>
<path d="M3.3687 70.1398C2.3427 70.1238 2.33472 71.7437 3.3687 71.7278H24.3607C25.3867 71.7437 25.3946 70.1238 24.3607 70.1398H3.3687Z" fill="#D7E9F5"/>
<path d="M13.0712 86.7747C13.0792 86.8887 13.0553 91.6128 13.0792 91.7109H14.6501C14.6741 91.6128 14.6501 86.883 14.6581 86.7747H13.0712Z" fill="#C3D2D1"/>
<path d="M8.21141 87.3549H19.4153C21.2393 87.3458 20.7457 89.7489 20.8016 90.9049C20.8019 91.087 20.7662 91.2674 20.6967 91.4358C20.6271 91.6041 20.525 91.757 20.3962 91.8858C20.2674 92.0146 20.1145 92.1167 19.9462 92.1862C19.7779 92.2558 19.5975 92.2914 19.4153 92.2911H8.21141C8.02929 92.2914 7.84889 92.2558 7.68057 92.1862C7.51224 92.1167 7.35931 92.0146 7.23052 91.8858C7.10174 91.757 6.99964 91.6041 6.93008 91.4358C6.86052 91.2674 6.82487 91.087 6.82517 90.9049C6.88559 89.7478 6.38171 87.3481 8.21141 87.3549Z" fill="#D7E9F5"/>
<path d="M13.0712 70.7326V72.2362H14.6581V70.7326H13.0712Z" fill="#C3D2D1"/>
<path d="M3.3687 70.1398C2.3427 70.1238 2.33472 71.7437 3.3687 71.7278H24.3607C25.3867 71.7437 25.3946 70.1238 24.3607 70.1398H3.3687Z" fill="#D7E9F5"/>
<path d="M8.52379 87.9967C8.14645 87.9967 8.14531 88.585 8.52379 88.5793H18.8123V91.0873C18.8098 91.1271 18.8155 91.1669 18.829 91.2044C18.8425 91.2419 18.8636 91.2763 18.8908 91.3053C18.9181 91.3344 18.9511 91.3575 18.9877 91.3734C19.0243 91.3892 19.0637 91.3973 19.1036 91.3973C19.1434 91.3973 19.1829 91.3892 19.2194 91.3734C19.256 91.3575 19.289 91.3344 19.3163 91.3053C19.3436 91.2763 19.3646 91.2419 19.3781 91.2044C19.3916 91.1669 19.3973 91.1271 19.3948 91.0873V88.2886C19.3948 88.2114 19.3642 88.1373 19.3098 88.0826C19.2553 88.0279 19.1813 87.997 19.1041 87.9967H8.52379Z" fill="#C3D2D1"/>
<path d="M84.9437 86.7381H63.4798L61.478 92.4529H82.9419L84.9437 86.7381Z" fill="#C3D2D1"/>
<path d="M63.4798 86.7382H84.9437L86.9456 92.453H65.4816L63.4798 86.7382Z" fill="#D7E9F5"/>
<path d="M66.0232 87.9705L66.9021 91.0234H68.994L68.8435 90.5001H67.3786L66.6513 87.9705H66.0232ZM69.4067 87.9705L69.2003 91.0234H69.841L69.8684 90.4078H71.0084L71.3869 91.0234H72.031L70.093 87.9705H69.4067ZM71.282 87.9705L73.0228 91.0234H73.5928L73.4047 88.6408L74.6017 91.0234H75.1717L75.1386 87.9705H74.466L74.6689 90.2607L73.5164 87.9705H72.8962L73.0809 90.2573L71.95 87.9705H71.282ZM75.2549 87.9705L76.8212 89.8925L77.1473 91.0234H77.772L77.446 89.8925L77.8598 87.9705H77.1564L76.9626 89.3191L75.9514 87.9705H75.2549ZM78.2405 87.9705L79.1195 91.0234H81.3995L81.249 90.5001H79.596L79.368 89.709H80.8295L80.679 89.1857H79.2175L79.0192 88.4949H80.5981L80.4464 87.9705H78.2405ZM81.0244 87.9705L81.9034 91.0234H82.5315L82.1827 89.8127C83.741 89.7261 83.1152 90.0077 83.7285 91.0234H84.4034L84.3703 90.9094C83.9075 90.54 84.1298 89.6771 83.4219 89.5482C84.0956 89.2735 83.643 88.2498 83.0867 88.0491C82.8165 87.8998 81.3413 87.9978 81.0244 87.9705ZM81.803 88.4949C82.2077 88.5439 83.0126 88.3022 83.1175 88.8836C83.3614 89.5186 82.3354 89.2256 82.0322 89.2895L81.803 88.4949ZM69.947 88.691L70.688 89.8845H69.89L69.947 88.691Z" fill="#22263F"/>
<path d="M56.747 75.2925L30.9556 76.3664L30.3856 92.453H44.7758L44.9651 90.89L46.0264 90.2357C46.0264 90.2357 46.2213 91.6424 46.3342 92.453H58.148C57.8961 84.7431 58.3863 79.8081 56.7435 75.2925H56.747Z" fill="#3D395A"/>
<path d="M56.2921 41.5497C59.3143 44.9754 64.8421 58.8389 61.527 62.7343C60.7814 63.3522 56.5794 59.1718 56.5794 59.1718L55.4041 44.1238L56.2921 41.5497Z" fill="#3D395A"/>
<path d="M39.0234 79.4615C39.0234 79.4615 48.7499 82.5156 56.5999 79.0238C57.0274 70.7884 50.282 40.1851 50.282 40.1851L44.004 38.7133L36.9668 43.1776L39.0234 79.4615Z" fill="#E8F1F6"/>
<path d="M42.3089 41.0515C42.2849 41.2589 43.3075 43.8946 44.7622 44.598C44.7622 44.598 43.4557 63.4274 43.5332 63.5961C43.6108 63.7648 44.8819 69.9904 44.8819 69.9904L50.3322 74.8627L53.6382 67.6807L46.8256 44.378C46.8256 44.378 47.7045 43.9094 48.1081 40.738C46.5235 38.9003 44.0987 39.4235 44.0987 39.4235L42.3089 41.0515Z" fill="#04B6F5"/>
<path d="M48.2164 38.1855C50.3105 51.1941 52.8607 72.4801 56.682 84.7169C56.682 84.7169 57.6852 85.0486 58.8252 84.0785L56.2921 41.5497C56.2921 41.5497 52.7137 38.222 48.2164 38.1855Z" fill="#3D395A"/>
<path d="M48.4797 38.1935C49.3336 40.5317 50.3037 44.0953 52.0034 45.966C51.601 46.9168 50.7791 57.9793 52.0274 55.8544C51.8359 53.107 52.1767 48.7032 52.4891 45.656C50.9353 44.0109 49.9013 40.4177 49.1067 38.2357C48.9004 38.214 48.686 38.2004 48.4797 38.1935Z" fill="#22263F"/>
<path d="M55.6754 48.3475C55.8282 48.1286 56.4403 51.5885 56.7014 54.3553C56.8268 55.5512 56.9112 56.6114 56.9533 57.5063C57.0673 60.3494 56.7664 60.3916 56.3982 57.5598C56.2739 56.7128 56.1268 55.5888 55.9957 54.4328C55.6515 51.6866 55.477 48.1548 55.6754 48.3475Z" fill="#22263F"/>
<path d="M60.5489 52.5222C57.4572 53.0055 57.4321 52.6806 53.2711 54.8592C53.2711 54.8592 54.9481 58.0135 54.9959 58.0512C55.0096 58.0614 55.3858 58.0295 55.8988 57.9828C56.9111 59.4933 58.8628 58.7158 59.9036 57.5701C61.1314 57.4401 63.8868 57.1038 63.3362 55.7016C63.9062 55.5306 63.9883 54.622 62.7662 54.1649C63.2222 53.6052 62.1483 53.0078 61.5589 53.0557C61.4928 52.9611 61.087 52.5267 60.5489 52.5222Z" fill="#FEC3B3"/>
<path d="M46.0948 67.886L40.2808 41.7936L36.1392 38.3736C36.1392 38.3736 32.4912 39.2047 31.0183 40.3424C27.6131 47.0524 29.3722 76.4587 28.711 82.3514C28.711 82.3514 33.8911 86.029 41.365 85.133L46.0948 67.886Z" fill="#3D395A"/>
<path d="M36.1381 38.3782C36.1381 38.3782 35.9431 38.4238 35.6593 38.4922C36.4573 40.6719 37.5494 45.0233 37.6338 47C39.1899 48.482 43.1776 57.602 43.6837 59.1171C43.7018 59.162 43.7307 59.2017 43.7679 59.2328C43.8051 59.2638 43.8494 59.2851 43.8968 59.2948C43.9442 59.3045 43.9933 59.3023 44.0397 59.2884C44.0861 59.2745 44.1283 59.2493 44.1625 59.2151C43.2243 55.7187 40.2204 49.4282 38.1399 46.7139C38.1696 44.6129 36.9862 40.689 36.2692 38.4854L36.1381 38.3782Z" fill="#22263F"/>
<path d="M61.5259 62.732C58.3339 65.9947 50.135 64.4169 45.5522 62.3091C46.3867 58.4 46.4984 56.454 46.7275 56.4153C46.9567 56.3765 54.7349 56.9556 56.3503 57.1095C59.6642 57.4652 61.3594 60.1488 61.5259 62.732Z" fill="#3D395A"/>
<path d="M60.908 60.3654C60.3471 59.9424 59.6369 58.6827 58.628 58.2165C57.6453 57.5427 55.8623 57.431 55.1806 57.0047C55.9934 56.592 57.8528 56.9545 58.9825 57.6032C60.0381 58.2313 61.0208 59.5411 60.9023 60.3654H60.908Z" fill="#22263F"/>
<path d="M36.716 35.5008C36.2771 36.3216 35.7128 38.9071 35.8861 39.0006C36.0594 39.0941 39.9502 43.8433 39.9502 43.8433L44.1249 40.0813L46.7229 39.8602L48.8525 41.6431C48.8525 41.6431 49.4225 38.6677 48.6119 37.2302C45.5943 36.512 36.716 35.5008 36.716 35.5008Z" fill="#E8F1F6"/>
<path d="M31.016 40.347C28.28 42.0843 27.5824 42.1391 27.6496 44.3244C27.7169 46.5098 29.5067 54.6905 30.7801 58.1241C32.0534 61.5578 32.0968 62.276 33.182 63.1538C34.2673 64.0316 40.274 62.6773 40.73 61.3538C40.909 57.2498 33.8193 42.92 31.0217 40.347H31.016Z" fill="#3D395A"/>
<path d="M36.3261 48.7397C36.9839 49.117 38.3291 52.1072 38.8649 53.4376C39.5751 55.2889 40.6 57.8334 40.4917 59.2083C39.8077 58.1401 39.1112 55.7803 38.3257 54.0065L38.2049 53.7021C37.7055 52.2794 36.3957 49.5308 36.3261 48.7397Z" fill="#22263F"/>
<path d="M45.2238 57.0719C40.0471 52.4287 36.3318 52.1562 32.9631 56.2112C32.6154 56.9522 32.9175 57.5519 33.3131 57.4789C33.2276 58.3841 33.5411 58.6759 34.1795 58.6189C34.2263 59.5309 34.5626 59.6346 35.3891 59.3588C35.7208 60.5945 44.81 57.0058 45.2238 57.0719Z" fill="#FEC3B3"/>
<path d="M59.8432 63.9096C58.0545 65.9833 47.1698 64.2174 45.4268 62.4048C47.7615 63.0751 52.4275 64.084 55.2479 64.1239C56.9499 64.2721 58.7876 64.2915 59.8432 63.9096Z" fill="#22263F"/>
<path d="M35.4085 60.4691C40.1691 56.7504 48.3383 55.0039 52.4902 54.1683C52.4902 54.1683 57.1802 54.7565 56.2807 57.8619C51.7412 62.0731 34.224 70.4167 32.4467 61.7584C32.5163 61.25 35.4085 60.4691 35.4085 60.4691Z" fill="#3D395A"/>
<path d="M35.6023 60.5774C39.0633 57.944 44.924 56.0505 49.5319 55.0062C50.8019 54.7782 51.7321 54.2173 52.9348 54.4054C54.1637 54.7269 55.7198 55.2764 56.1872 56.5065C56.4016 57.0913 56.2864 57.504 56.3286 57.5108C56.3708 57.5176 56.5817 57.1449 56.4164 56.4392C56.0288 55.0131 54.3872 54.3325 53.0443 53.9312C51.8404 53.6439 50.6788 54.2401 49.3963 54.4533C44.8363 55.5409 38.5252 57.252 35.6023 60.574V60.5774Z" fill="#22263F"/>
<path d="M55.6982 58.156C54.4351 60.395 41.3342 67.8871 35.1884 65.3232C31.9622 63.4456 30.8849 58.9632 29.8498 55.8441C29.2559 53.9061 28.0144 48.604 28.166 47.9553C28.4613 48.6108 29.6948 53.7192 30.3913 55.6845C31.4378 58.579 32.5391 62.8939 35.4746 64.6757C41.7617 67.0207 53.9585 59.7076 55.6982 58.156Z" fill="#22263F"/>
<path d="M44.769 44.5946C45.0848 44.4453 46.6386 44.2902 46.821 44.3917C46.9452 44.8055 44.6801 45.0426 44.769 44.5946Z" fill="#0081AF"/>
<path d="M33.7612 72.9384C33.3827 72.9384 33.3827 73.5255 33.7612 73.521C34.1351 73.5666 42.1915 75.9959 40.4313 74.3851C38.4659 74.279 35.7493 73.3671 33.7612 72.9384Z" fill="#22263F"/>
<path d="M58.164 72.9623C57.6772 73.0592 56.6923 73.1903 56.7538 73.1744C56.3788 73.2109 56.4437 73.8002 56.8177 73.7535C56.7721 73.7615 57.6544 73.6509 58.1982 73.5483L58.164 72.9623Z" fill="#22263F"/>
<path d="M42.8983 79.6325C43.1901 79.4752 42.31 83.6088 41.7309 84.8879C41.5816 85.2037 41.5029 85.7703 41.1609 85.9481C40.2124 86.1761 39.2662 85.9219 38.3109 85.8341C35.9728 85.5411 30.8257 84.2643 29.7609 83.0001C32.0945 83.8585 37.7683 85.4089 40.8919 85.3416C40.8839 85.3302 40.8531 85.3656 40.7893 85.4397C40.9147 85.2117 41.0309 84.9084 41.1313 84.6622C41.7013 83.4276 42.8675 79.3954 42.8948 79.6359L42.8983 79.6325Z" fill="#22263F"/>
<path d="M55.2593 78.92C55.29 78.92 55.3037 78.9451 55.3254 78.9725C55.3586 79.0287 55.3876 79.0874 55.412 79.148C55.4793 79.2939 55.5602 79.506 55.6526 79.7727C56.1371 81.1829 56.6535 83.2167 57.0126 84.7751C56.9339 84.6782 56.9111 84.6417 56.8986 84.6679C57.3238 84.7751 59.7258 83.5279 58.4353 84.5197C57.9919 84.7352 56.9773 85.5582 56.527 84.9244C56.027 83.2598 55.619 81.5689 55.3049 79.8594C55.2593 79.5812 55.2296 79.3555 55.2194 79.1959C55.2137 79.1322 55.2137 79.0681 55.2194 79.0044C55.2194 78.9702 55.2194 78.9405 55.2513 78.9269L55.2593 78.92Z" fill="#22263F"/>
<path d="M48.7818 88.724C48.9266 89.4365 45.4621 91.3004 44.9571 90.8593C44.9092 90.7111 45.8167 90.3212 46.8575 89.7546C47.8983 89.188 48.6815 88.6203 48.7818 88.7286V88.724Z" fill="#22263F"/>
<path d="M36.5473 33.8501V36.1962C38.8467 38.7897 44.1557 40.7436 45.9762 41.4402C47.3511 40.3971 47.3648 37.6964 47.3591 37.5277C47.3591 37.5277 46.9669 36.4128 46.8677 36.3147C44.3289 35.6205 39.1328 34.4098 36.5473 33.8501Z" fill="#FEC3B3"/>
<path d="M37.8332 34.1396C37.107 34.1761 37.009 34.1795 36.5473 34.4234V35.8279C39.2491 39.0108 43.6016 40.356 47.1949 39.1145C47.4662 37.5459 47.4229 37.4251 46.8529 36.309C44.6208 35.7196 40.0722 34.6104 37.8332 34.1396Z" fill="#F37584"/>
<path d="M29.876 26.904C25.3628 22.189 24.2387 14.168 28.166 12.0704C30.2317 -2.45096 62.6818 -0.994039 57.0331 16.2074C55.8156 19.4405 35.4085 28.8135 35.4085 28.8135L29.876 26.904Z" fill="#642435"/>
<path d="M51.6067 9.91458C50.8805 9.89634 50.2763 10.0673 49.8887 10.4618C45.7688 14.9557 41.5838 6.96084 36.9475 12.1718C37.4342 13.8613 36.9338 17.3485 33.8478 18.6527C34.411 21.3796 34.1693 22.7658 33.027 24.0209C25.7914 21.0079 24.7244 35.1656 34.46 33.1717C42.5813 43.6597 61.6387 36.2702 56.804 23.4897C57.26 21.9553 58.4969 15.7468 55.672 11.3339C54.272 10.4675 52.7798 9.94992 51.6067 9.91458Z" fill="#FEC3B3"/>
<path d="M33.8056 30.5189C32.6884 31.0536 28.5742 30.8233 28.7452 27.4865C31.61 22.9265 34.3311 27.7248 33.8056 30.5189Z" fill="#FAB3AA"/>
<path d="M56.0675 20.4231L51.1234 18.4999C52.7661 15.8711 56.5315 17.5742 56.0675 20.4242V20.4231Z" fill="#642435"/>
<path d="M38.0179 20.1655L43.6883 18.3643C42.1937 15.8779 37.6634 17.0396 38.0179 20.1655Z" fill="#642435"/>
<path d="M51.536 23.7906C51.4369 25.479 54.0019 25.6397 54.1159 23.9537C54.2128 22.2619 51.65 22.1046 51.536 23.7906Z" fill="#642435"/>
<path d="M39.68 24.1555C39.5809 25.8438 42.1459 26.0057 42.2599 24.3185C42.3739 22.6313 39.794 22.4694 39.68 24.1555Z" fill="#642435"/>
<path d="M33.8569 30.666C33.9709 30.666 34.151 29.6514 33.8569 28.1147C33.5309 25.2989 30.2819 24.2261 28.9378 26.8778C28.573 27.7054 28.6893 27.7613 29.208 27.051C30.5999 25.0891 32.8925 25.911 33.3211 28.2355C33.6973 29.64 33.7418 30.6694 33.8535 30.666H33.8569Z" fill="#F37584"/>
<path d="M33.4511 27.7008C33.3884 27.1502 32.2735 26.9336 31.6362 27.2745C30.991 27.5481 30.218 28.3974 30.3902 28.9161C31.5028 28.1055 31.8061 27.4056 33.4511 27.7008Z" fill="#F37584"/>
<path d="M48.612 25.9772C49.6756 26.0137 49.7394 26.3739 49.8169 26.627C49.8169 27.2346 47.041 27.368 46.959 26.8424C46.9419 26.4799 47.7148 26.0239 48.612 25.9772Z" fill="#F37584"/>
<path d="M43.8479 30.0014C44.6288 30.1963 45.795 30.8279 46.9339 30.8552C48.3498 31.0126 50.7586 30.601 50.4679 30.9065C50.3892 31.1699 48.8662 32.0135 46.8518 31.8299C45.7061 31.7729 43.6598 30.8279 43.8536 30.0059L43.8479 30.0014Z" fill="#F37584"/>
</svg>
